<svg width="154" height="49" viewBox="0 0 154 49" fill="none" xmlns="http://www.w3.org/2000/svg">
<path d="M39.5633 30.8465C39.561 30.8243 39.2945 28.5985 38.8294 26.7162L38.8086 26.6281C38.7093 26.2286 38.6083 25.8131 38.5077 25.3849C40.4585 25.2145 42.4027 25.394 44.2941 25.929C43.6556 30.6363 41.4481 35.0116 38.0391 38.3509C39.1204 36.1029 39.659 33.4769 39.5633 30.8465" fill="#3094A4"/>
<path d="M6.47658 25.2978C6.91221 25.2978 7.35948 25.3193 7.84045 25.3615C7.73262 25.8217 7.62232 26.272 7.51204 26.7162C7.04884 28.5984 6.78171 30.8243 6.77741 30.8587C6.67754 33.671 7.33008 36.547 8.58611 38.8943C4.88539 35.5189 2.4885 30.9818 1.79492 26.0091C3.33831 25.5379 4.91174 25.2978 6.47658 25.2978Z" fill="#3094A4"/>
<path d="M9.03233 27.09C9.14997 26.6085 9.27374 26.1042 9.39505 25.5822C16.9791 26.9865 22.4664 33.5692 22.4664 41.2893C22.4664 42.0711 22.3923 42.8903 22.233 43.8633C21.529 43.9895 20.8667 44.0508 20.2123 44.0508C19.0666 44.0508 17.9227 43.8915 16.8149 43.5814C16.2941 43.424 15.7825 43.2298 15.3064 43.0441C13.9015 42.4332 12.665 41.5798 11.6314 40.5051C9.35708 38.1394 8.22971 34.9534 8.37124 31.2999C8.37368 31.2748 8.61326 28.7909 9.03233 27.09" fill="#3094A4"/>
<path d="M9.72656 24.0522C10.1726 21.7876 10.3148 19.8877 10.1671 18.1341C13.3599 21.9151 17.9877 23.872 22.0867 25.6054C27.8307 28.0353 32.3683 29.9549 31.4603 35.7383L31.4585 35.7976C30.2613 39.4279 27.4447 42.2709 23.8848 43.4534C23.9841 42.6685 24.0326 41.9584 24.0326 41.2893C24.0326 32.837 18.0262 25.6134 9.72656 24.0522Z" fill="#E31059"/>
<path d="M31.9339 29.9611C31.9431 30.0126 31.9505 30.0647 31.9584 30.1191C30.143 27.3117 26.5189 25.7799 22.698 24.1637C17.6954 22.0486 12.0346 19.6549 9.35156 13.9819C17.5611 14.6196 30.1638 20.5947 31.9339 29.9611" fill="#E31059"/>
<path d="M33.1437 11.3043C32.9139 11.8343 32.7197 12.4121 32.5389 13.0984C30.2928 13.629 28.03 14.4291 25.8109 15.4769C25.2828 14.9437 24.6872 14.5027 24.0352 14.1632C26.5129 12.4256 28.3922 11.3534 33.1437 11.3043Z" fill="#E31059"/>
<path d="M22.0337 13.4789C21.584 13.3967 21.1607 13.3562 20.7433 13.3562C19.616 13.3562 18.477 13.6394 17.4446 14.1755C17.0826 14.048 16.7204 13.9242 16.3656 13.8122C15.3614 13.4176 14.7383 12.8979 14.7383 12.4587C14.7383 11.6989 17.5053 10.2192 22.576 10.2192C24.1291 10.2192 25.678 10.3798 26.999 10.6708C25.1843 11.3595 23.6659 12.354 22.0337 13.4789" fill="#E31059"/>
<path d="M24.3105 16.217C23.9424 16.4155 23.5784 16.6311 23.2261 16.8377L23.1906 16.8584C22.0644 16.1955 20.8617 15.5865 19.6094 15.0394C21.2911 14.684 23.0171 15.1374 24.3105 16.217" fill="#E31059"/>
<path d="M33.6457 31.9566C33.6457 31.1289 33.5898 30.3894 33.4728 29.681C32.4147 24.0584 28.1858 20.1548 24.7363 17.8339C28.6766 15.6613 33.2957 14.2244 37.1987 13.9604C35.1982 18.5158 36.4157 23.4609 37.3089 27.09C37.7287 28.7909 37.9671 31.2748 37.9683 31.2906C38.1117 34.9534 36.9842 38.1394 34.7093 40.5051C34.0378 41.2029 33.251 41.8144 32.3044 42.3763C30.2715 43.3547 28.1308 44.0005 25.9275 44.3001C30.5828 42.0613 33.6457 37.2253 33.6457 31.9566" fill="#E31059"/>
<path d="M26.6997 45.7756C25.6041 46.3576 24.3898 46.6628 23.143 46.6628C21.9225 46.6628 20.7295 46.3699 19.6494 45.8105C20.8117 45.9869 21.9267 46.0727 23.0388 46.0727C24.2525 46.0727 25.4804 45.9735 26.6997 45.7756V45.7756ZM33.6459 31.9567C33.6459 31.129 33.5901 30.3894 33.4731 29.6811C32.4149 24.0584 28.1861 20.1548 24.7366 17.8339C28.6769 15.6613 33.296 14.2244 37.1989 13.9604C35.1984 18.5159 36.4159 23.4609 37.3092 27.09C37.7289 28.7909 37.9673 31.2748 37.9686 31.2907C38.112 34.9535 36.9845 38.1394 34.7095 40.5051C34.038 41.203 33.2513 41.8145 32.3047 42.3763C30.2717 43.3548 28.131 44.0006 25.9277 44.3002C30.5831 42.0614 33.6459 37.2253 33.6459 31.9567V31.9567ZM9.03306 27.09C9.15069 26.6085 9.27447 26.1042 9.39577 25.5822C16.9798 26.9865 22.4671 33.5693 22.4671 41.2894C22.4671 42.0712 22.3931 42.8903 22.2337 43.8633C21.5298 43.9895 20.8674 44.0508 20.213 44.0508C19.0673 44.0508 17.9234 43.8915 16.8156 43.5815C16.2948 43.424 15.7832 43.2298 15.3071 43.0441C13.9022 42.4333 12.6658 41.5798 11.6322 40.5051C9.3578 38.1394 8.23043 34.9535 8.37196 31.2999C8.3744 31.2748 8.61398 28.7909 9.03306 27.09V27.09ZM39.1749 13.5285L39.8618 12.3502H38.4984C37.2272 12.3502 35.8051 12.4868 34.2653 12.759C34.4902 12.0953 34.7738 11.466 35.1133 10.8852L35.8014 9.70882H34.4449C32.6932 9.61879 31.1675 9.69235 29.7761 9.92826C28.0281 9.11765 25.4081 8.65509 22.5744 8.65509C17.9013 8.65509 13.17 9.96135 13.17 12.4587C13.17 12.6259 13.1945 12.7963 13.2423 12.9702C11.3374 12.5591 9.52138 12.3502 7.84442 12.3502H6.48055L7.168 13.5285C9.1703 16.9596 8.77205 20.8122 8.17467 23.8164C7.59567 23.7612 7.02586 23.7348 6.47565 23.7348C4.85873 23.7348 3.23078 23.9665 1.63223 24.4259C1.59854 23.9713 1.56545 23.5033 1.56545 23.0357C1.56545 11.1966 11.1983 1.5643 23.0388 1.5643C34.878 1.5643 44.5098 11.1966 44.5098 23.0357C44.5098 23.4641 44.479 23.8929 44.4503 24.3089L44.4472 24.3512C42.383 23.8035 40.2742 23.6319 38.1731 23.844C37.5727 20.8269 37.1708 16.9626 39.1749 13.5285ZM24.3107 16.2171C23.9426 16.4155 23.5786 16.6312 23.2263 16.8377L23.1908 16.8584C22.0646 16.1956 20.8619 15.5865 19.6096 15.0394C21.2913 14.684 23.0173 15.1375 24.3107 16.2171V16.2171ZM22.0321 13.4789C21.5825 13.3967 21.1591 13.3563 20.7417 13.3563C19.6144 13.3563 18.4754 13.6394 17.443 14.1755C17.081 14.048 16.7188 13.9242 16.364 13.8122C15.3598 13.4176 14.7367 12.8979 14.7367 12.4587C14.7367 11.699 17.5037 10.2192 22.5744 10.2192C24.1275 10.2192 25.6764 10.3798 26.9974 10.6708C25.1827 11.3595 23.6643 12.354 22.0321 13.4789V13.4789ZM33.1441 11.3043C32.9144 11.8343 32.7202 12.4122 32.5393 13.0984C30.2932 13.629 28.0305 14.4291 25.8113 15.4769C25.2832 14.9437 24.6876 14.5027 24.0356 14.1633C26.5134 12.4256 28.3926 11.3534 33.1441 11.3043ZM31.9322 29.9612C31.9414 30.0126 31.9488 30.0647 31.9566 30.1191C30.1412 27.3118 26.5172 25.78 22.6963 24.1638C17.6936 22.0487 12.0328 19.6549 9.34983 13.9819C17.5594 14.6197 30.1621 20.5948 31.9322 29.9612V29.9612ZM9.72664 24.0523C10.1727 21.7877 10.3148 19.8877 10.1672 18.1341C13.36 21.9152 17.9877 23.8721 22.0867 25.6054C27.8308 28.0354 32.3684 29.9549 31.4603 35.7384L31.4586 35.7976C30.2614 39.428 27.4448 42.2709 23.8849 43.4534C23.9842 42.6686 24.0326 41.9584 24.0326 41.2894C24.0326 32.8371 18.0263 25.6134 9.72664 24.0523ZM6.47565 25.2978C6.91128 25.2978 7.35855 25.3193 7.83952 25.3615C7.73169 25.8217 7.62139 26.272 7.51111 26.7162C7.04791 28.5985 6.78078 30.8243 6.77648 30.8587C6.67661 33.671 7.32914 36.5471 8.58518 38.8944C4.88445 35.5189 2.48757 30.9818 1.79399 26.0092C3.33738 25.538 4.91081 25.2978 6.47565 25.2978ZM39.5639 30.8465C39.5616 30.8243 39.2951 28.5985 38.83 26.7162L38.8092 26.6281C38.7099 26.2286 38.6089 25.8131 38.5083 25.3849C40.4591 25.2145 42.4033 25.394 44.2947 25.929C43.6562 30.6363 41.4487 35.0117 38.0396 38.3509C39.121 36.1029 39.6596 33.4769 39.5639 30.8465V30.8465ZM23.0388 1.63421e-05C10.3357 1.63421e-05 0 10.3332 0 23.0357C0 32.5822 5.76797 41.0014 14.6895 44.4846C15.2073 44.7082 15.6968 44.889 16.1863 45.036C17.9399 47.0647 20.4729 48.2264 23.143 48.2264C25.8714 48.2264 28.4403 47.0224 30.1964 44.9233C39.6976 41.8083 46.0764 33.0185 46.0764 23.0357C46.0764 10.3332 35.7413 1.63421e-05 23.0388 1.63421e-05" fill="#1B1C40"/>
<path d="M58.838 24.668H57.33V30.518L59.488 31.428L59.332 32H53.04L52.884 31.428L54.314 30.83C54.626 30.7087 54.834 30.5787 54.938 30.44C55.0593 30.3013 55.12 30.102 55.12 29.842V16.582L52.884 15.672L53.04 15.1C55.9 14.9613 57.8587 14.892 58.916 14.892C63.4053 14.892 65.65 16.504 65.65 19.728C65.65 22.276 64.2807 23.8533 61.542 24.46C61.7327 24.6333 61.906 24.8847 62.062 25.214C63.2407 27.6233 64.116 29.1833 64.688 29.894C65.26 30.6047 66.144 31.09 67.34 31.35L67.158 32L64.246 32.208C63.31 31.4453 62.5993 30.6913 62.114 29.946C61.646 29.2007 60.866 27.6753 59.774 25.37C59.5487 24.902 59.2367 24.668 58.838 24.668ZM57.33 16.972V23.342H59.02C60.3027 23.342 61.308 23.1947 62.036 22.9C62.4173 22.6227 62.712 22.302 62.92 21.938C63.128 21.5567 63.232 21.002 63.232 20.274C63.232 19.1473 62.9287 18.2113 62.322 17.466C61.7327 16.7033 60.7533 16.322 59.384 16.322H58.032C57.564 16.322 57.33 16.5387 57.33 16.972ZM70.3308 25.864C70.3308 28.984 71.5181 30.544 73.8928 30.544C74.7595 30.544 75.5048 30.414 76.1288 30.154C76.7701 29.322 77.0908 28.0827 77.0908 26.436C77.0908 23.316 75.9035 21.756 73.5288 21.756C72.6621 21.756 71.9168 21.886 71.2928 22.146C70.6515 22.978 70.3308 24.2173 70.3308 25.864ZM73.5548 32.208C71.9428 32.208 70.6341 31.6793 69.6288 30.622C68.6235 29.5647 68.1208 28.074 68.1208 26.15C68.1208 24.2087 68.6755 22.718 69.7848 21.678C70.8941 20.6207 72.2548 20.092 73.8668 20.092C75.4788 20.092 76.7875 20.6207 77.7928 21.678C78.7981 22.7353 79.3008 24.2347 79.3008 26.176C79.3008 28.1 78.7461 29.5907 77.6368 30.648C76.5275 31.688 75.1668 32.208 73.5548 32.208ZM87.2272 21.756C86.8285 21.5827 86.2132 21.496 85.3812 21.496C84.5665 21.496 83.9512 21.704 83.5352 22.12C83.3792 22.3627 83.3012 22.6487 83.3012 22.978C83.3012 23.706 83.7432 24.2347 84.6272 24.564L87.2792 25.5C88.0245 25.76 88.6225 26.1847 89.0732 26.774C89.5238 27.346 89.7492 28.022 89.7492 28.802C89.7492 29.894 89.3332 30.7347 88.5012 31.324C87.6692 31.9133 86.6898 32.208 85.5632 32.208C84.4538 32.208 83.5178 32.026 82.7552 31.662C82.0098 31.2807 81.4638 30.882 81.1172 30.466L82.4432 28.308L83.0932 28.49L83.1972 30.232C83.8038 30.5787 84.5752 30.752 85.5112 30.752C87.0885 30.752 87.8772 30.2147 87.8772 29.14C87.8772 28.7067 87.7385 28.36 87.4612 28.1C87.1838 27.84 86.7332 27.606 86.1092 27.398L83.7172 26.618C83.0065 26.3753 82.4605 25.9767 82.0792 25.422C81.6978 24.8673 81.5072 24.2433 81.5072 23.55C81.5072 22.458 81.9405 21.6087 82.8072 21.002C83.6738 20.3953 84.6792 20.092 85.8232 20.092C86.5165 20.092 87.1665 20.2307 87.7732 20.508C88.6225 20.872 89.1945 21.2793 89.4892 21.73L88.0592 23.758L87.4352 23.576L87.2272 21.756ZM91.7087 26.15C91.7087 24.2433 92.2547 22.7613 93.3467 21.704C94.4387 20.6293 95.7127 20.092 97.1687 20.092C98.6247 20.092 99.7254 20.5253 100.471 21.392C101.216 22.2413 101.589 23.4113 101.589 24.902V25.76L101.199 26.15H93.9187C93.9534 27.4847 94.326 28.5507 95.0367 29.348C95.7474 30.1453 96.6574 30.544 97.7667 30.544C98.8934 30.544 99.968 30.3187 100.991 29.868L101.355 30.544C101.147 30.752 100.895 30.9687 100.601 31.194C100.306 31.402 99.8294 31.6273 99.1707 31.87C98.5294 32.0953 97.8534 32.208 97.1427 32.208C95.5307 32.208 94.222 31.6793 93.2167 30.622C92.2114 29.5473 91.7087 28.0567 91.7087 26.15ZM96.8827 21.756C96.068 21.756 95.4007 21.886 94.8807 22.146C94.6727 22.406 94.4647 22.822 94.2567 23.394C94.066 23.966 93.962 24.512 93.9447 25.032L99.5087 24.876C99.5087 22.796 98.6334 21.756 96.8827 21.756ZM109.495 21.756C109.096 21.5827 108.481 21.496 107.649 21.496C106.834 21.496 106.219 21.704 105.803 22.12C105.647 22.3627 105.569 22.6487 105.569 22.978C105.569 23.706 106.011 24.2347 106.895 24.564L109.547 25.5C110.292 25.76 110.89 26.1847 111.341 26.774C111.791 27.346 112.017 28.022 112.017 28.802C112.017 29.894 111.601 30.7347 110.769 31.324C109.937 31.9133 108.957 32.208 107.831 32.208C106.721 32.208 105.785 32.026 105.023 31.662C104.277 31.2807 103.731 30.882 103.385 30.466L104.711 28.308L105.361 28.49L105.465 30.232C106.071 30.5787 106.843 30.752 107.779 30.752C109.356 30.752 110.145 30.2147 110.145 29.14C110.145 28.7067 110.006 28.36 109.729 28.1C109.451 27.84 109.001 27.606 108.377 27.398L105.985 26.618C105.274 26.3753 104.728 25.9767 104.347 25.422C103.965 24.8673 103.775 24.2433 103.775 23.55C103.775 22.458 104.208 21.6087 105.075 21.002C105.941 20.3953 106.947 20.092 108.091 20.092C108.784 20.092 109.434 20.2307 110.041 20.508C110.89 20.872 111.462 21.2793 111.757 21.73L110.327 23.758L109.703 23.576L109.495 21.756ZM122.608 24.382C122.608 23.498 122.4 22.8653 121.984 22.484C121.586 22.0853 120.936 21.886 120.034 21.886C119.133 21.886 118.232 21.9987 117.33 22.224V30.596L119.384 31.428L119.228 32H113.404L113.248 31.428L114.418 30.934C114.73 30.8127 114.938 30.6827 115.042 30.544C115.164 30.4053 115.224 30.206 115.224 29.946V16.192L113.404 15.906L113.248 15.334L116.758 14.112L117.278 14.32V21.08C118.474 20.4213 119.705 20.092 120.97 20.092C123.466 20.092 124.714 21.418 124.714 24.07V30.596L126.768 31.428L126.612 32H120.788L120.632 31.428L121.802 30.934C122.114 30.8127 122.322 30.6827 122.426 30.544C122.548 30.4053 122.608 30.206 122.608 29.946V24.382ZM130.05 25.864C130.05 28.984 131.237 30.544 133.612 30.544C134.478 30.544 135.224 30.414 135.848 30.154C136.489 29.322 136.81 28.0827 136.81 26.436C136.81 23.316 135.622 21.756 133.248 21.756C132.381 21.756 131.636 21.886 131.012 22.146C130.37 22.978 130.05 24.2173 130.05 25.864ZM133.274 32.208C131.662 32.208 130.353 31.6793 129.348 30.622C128.342 29.5647 127.84 28.074 127.84 26.15C127.84 24.2087 128.394 22.718 129.504 21.678C130.613 20.6207 131.974 20.092 133.586 20.092C135.198 20.092 136.506 20.6207 137.512 21.678C138.517 22.7353 139.02 24.2347 139.02 26.176C139.02 28.1 138.465 29.5907 137.356 30.648C136.246 31.688 134.886 32.208 133.274 32.208ZM147.986 20.092C149.511 20.092 150.673 20.6813 151.47 21.86C152.285 23.0213 152.692 24.512 152.692 26.332C152.692 28.152 152.137 29.5907 151.028 30.648C149.936 31.688 148.567 32.208 146.92 32.208C146.123 32.208 145.291 32.13 144.424 31.974V36.524L146.478 37.356L146.322 37.928H140.498L140.342 37.356L141.512 36.862C141.824 36.7407 142.032 36.6107 142.136 36.472C142.257 36.3333 142.318 36.134 142.318 35.874V22.172L140.498 21.886L140.342 21.314L143.696 20.092L144.216 20.3L144.268 21.028L144.372 21.08C145.551 20.4213 146.755 20.092 147.986 20.092ZM144.424 30.18C145.117 30.4227 145.967 30.544 146.972 30.544C147.995 30.544 148.844 30.414 149.52 30.154C150.161 29.3047 150.482 28.0653 150.482 26.436C150.482 23.4027 149.338 21.886 147.05 21.886C146.201 21.886 145.325 21.9987 144.424 22.224V30.18Z" fill="black"/>
</svg>
