<svg width="32" height="32" viewBox="0 0 32 32" fill="none" xmlns="http://www.w3.org/2000/svg">
<rect width="32" height="32" rx="16" fill="#419FD9"/>
<path fill-rule="evenodd" clip-rule="evenodd" d="M20.5045 24.3552C21.6492 24.856 22.0785 23.8067 22.0785 23.8067L25.1072 8.59121C25.0834 7.56571 23.7002 8.18578 23.7002 8.18578L6.74378 14.8396C6.74378 14.8396 5.93292 15.1257 6.00447 15.6266C6.07602 16.1274 6.71993 16.3659 6.71993 16.3659L10.9888 17.7968C10.9888 17.7968 12.2767 22.018 12.539 22.8289C12.7775 23.6159 12.9921 23.6397 12.9921 23.6397C13.2306 23.7351 13.4453 23.5682 13.4453 23.5682L16.2117 21.0641L20.5045 24.3552ZM21.2425 11.2861C21.2425 11.2861 21.8387 10.9284 21.8149 11.2861C21.8149 11.2861 21.9102 11.3338 21.6002 11.6677C21.314 11.9539 14.5649 18.0114 13.6586 18.8223C13.5871 18.87 13.5394 18.9415 13.5394 19.0369L13.277 21.2787C13.2293 21.5172 12.9193 21.541 12.8478 21.3264L11.7269 17.6537C11.6792 17.5106 11.7269 17.3437 11.87 17.2483L21.2425 11.2861Z" fill="white"/>
</svg>
