<svg width="32" height="32" viewBox="0 0 32 32" fill="none" xmlns="http://www.w3.org/2000/svg">
<rect width="32" height="32" rx="16" fill="#5181B8"/>
<path fill-rule="evenodd" clip-rule="evenodd" d="M25.5182 10.8802C25.6642 10.3729 25.5182 10 24.8234 10H22.526C21.9418 10 21.6726 10.3221 21.5266 10.6774C21.5266 10.6774 20.3582 13.6456 18.7031 15.5738C18.1676 16.1319 17.9243 16.3093 17.6322 16.3093C17.4861 16.3093 17.2747 16.1319 17.2747 15.6246V10.8802C17.2747 10.2713 17.1052 10 16.6183 10H13.0081C12.6432 10 12.4236 10.2826 12.4236 10.5504C12.4236 11.1278 13.251 11.2608 13.3363 12.8845V16.4111C13.3363 17.1842 13.2024 17.3245 12.9103 17.3245C12.1315 17.3245 10.2371 14.3427 9.11335 10.931C8.89313 10.2679 8.67225 10 8.0851 10H5.78768C5.13128 10 5 10.3221 5 10.6774C5 11.3116 5.77899 14.4576 8.62663 18.6183C10.5253 21.4595 13.1998 23 15.6337 23C17.0942 23 17.2747 22.6579 17.2747 22.0686V19.9211C17.2747 19.2368 17.4131 19.1003 17.8754 19.1003C18.2164 19.1003 18.8004 19.2779 20.1636 20.6479C21.7212 22.2713 21.9779 23 22.8542 23H25.1516C25.808 23 26.1362 22.6579 25.9468 21.9827C25.7397 21.3098 24.996 20.3338 24.0091 19.1765C23.4736 18.5167 22.6704 17.8063 22.4272 17.4512C22.0863 16.9945 22.1837 16.7916 22.4272 16.3859C22.4272 16.3859 25.2261 12.2759 25.5182 10.8804V10.8802Z" fill="white"/>
</svg>
