<svg width="26" height="21" viewBox="0 0 26 21" fill="none" xmlns="http://www.w3.org/2000/svg">
<g clip-path="url(#clip0_680_8528)">
<path d="M25.4678 19.734V19.786H25.5164C25.5271 19.786 25.5363 19.7836 25.5429 19.7795C25.5491 19.7755 25.5526 19.7684 25.5526 19.7598C25.5526 19.7512 25.5491 19.7446 25.5429 19.7406C25.5363 19.736 25.5271 19.734 25.5164 19.734H25.4678ZM25.5168 19.6976C25.5419 19.6976 25.5614 19.7032 25.5751 19.7143C25.5889 19.7254 25.5955 19.7406 25.5955 19.7598C25.5955 19.776 25.5904 19.7891 25.5792 19.7997C25.5684 19.8098 25.5532 19.8164 25.5327 19.8189L25.5971 19.8922H25.547L25.4872 19.8194H25.4678V19.8922H25.4259V19.6976H25.5168ZM25.5041 19.9593C25.5271 19.9593 25.5485 19.9548 25.568 19.9463C25.5879 19.9376 25.6052 19.926 25.6201 19.9113C25.6349 19.8967 25.6467 19.8796 25.6553 19.8593C25.6635 19.8396 25.6681 19.8184 25.6681 19.7956C25.6681 19.773 25.6635 19.7517 25.6553 19.732C25.6467 19.7123 25.6349 19.6946 25.6201 19.68C25.6052 19.6653 25.5879 19.6537 25.568 19.6451C25.5485 19.637 25.5271 19.633 25.5041 19.633C25.4811 19.633 25.4591 19.637 25.4392 19.6451C25.4188 19.6537 25.4009 19.6653 25.3861 19.68C25.3712 19.6946 25.3595 19.7123 25.3513 19.732C25.3426 19.7517 25.3385 19.773 25.3385 19.7956C25.3385 19.8184 25.3426 19.8396 25.3513 19.8593C25.3595 19.8796 25.3712 19.8967 25.3861 19.9113C25.4009 19.926 25.4188 19.9376 25.4392 19.9463C25.4591 19.9548 25.4811 19.9593 25.5041 19.9593ZM25.5041 19.586C25.5343 19.586 25.5618 19.5916 25.5884 19.6026C25.6145 19.6133 25.637 19.6284 25.6568 19.6476C25.6763 19.6663 25.6917 19.6886 25.7029 19.7143C25.7141 19.7396 25.7197 19.7669 25.7197 19.7956C25.7197 19.8245 25.7141 19.8517 25.7029 19.877C25.6917 19.9023 25.6763 19.9245 25.6568 19.9437C25.637 19.9624 25.6145 19.9776 25.5884 19.9886C25.5618 19.9998 25.5343 20.0053 25.5041 20.0053C25.4734 20.0053 25.4453 19.9998 25.4187 19.9886C25.3922 19.9776 25.3692 19.9624 25.3497 19.9437C25.3303 19.9245 25.315 19.9023 25.3038 19.877C25.2925 19.8517 25.2869 19.8245 25.2869 19.7956C25.2869 19.7669 25.2925 19.7396 25.3038 19.7143C25.315 19.6886 25.3303 19.6663 25.3497 19.6476C25.3692 19.6284 25.3922 19.6133 25.4187 19.6026C25.4453 19.5916 25.4734 19.586 25.5041 19.586ZM5.59479 18.8367C5.59479 18.4659 5.84058 18.1613 6.24223 18.1613C6.626 18.1613 6.88508 18.4528 6.88508 18.8367C6.88508 19.2207 6.626 19.5123 6.24223 19.5123C5.84058 19.5123 5.59479 19.2076 5.59479 18.8367ZM7.3225 18.8367V17.7818H6.8585V18.038C6.71133 17.848 6.48802 17.7288 6.18449 17.7288C5.5861 17.7288 5.117 18.1926 5.117 18.8367C5.117 19.4814 5.5861 19.9447 6.18449 19.9447C6.48802 19.9447 6.71133 19.8255 6.8585 19.6355V19.8916H7.3225V18.8367ZM23.0022 18.8367C23.0022 18.4659 23.248 18.1613 23.6496 18.1613C24.0339 18.1613 24.2925 18.4528 24.2925 18.8367C24.2925 19.2207 24.0339 19.5123 23.6496 19.5123C23.248 19.5123 23.0022 19.2076 23.0022 18.8367ZM24.7305 18.8367V16.9346H24.2659V18.038C24.1187 17.848 23.8955 17.7288 23.5919 17.7288C22.9935 17.7288 22.5244 18.1926 22.5244 18.8367C22.5244 19.4814 22.9935 19.9447 23.5919 19.9447C23.8955 19.9447 24.1187 19.8255 24.2659 19.6355V19.8916H24.7305V18.8367ZM13.0821 18.1395C13.381 18.1395 13.5731 18.325 13.6222 18.6513H12.5148C12.5644 18.3466 12.7514 18.1395 13.0821 18.1395ZM13.0913 17.7288C12.4658 17.7288 12.0284 18.179 12.0284 18.8367C12.0284 19.5077 12.4837 19.9447 13.1224 19.9447C13.4439 19.9447 13.7382 19.8654 13.9973 19.6492L13.7699 19.3091C13.591 19.4501 13.3631 19.53 13.149 19.53C12.85 19.53 12.5777 19.393 12.5108 19.013H14.0954C14.1 18.956 14.1046 18.8984 14.1046 18.8367C14.1 18.179 13.6891 17.7288 13.0913 17.7288ZM18.6939 18.8367C18.6939 18.4659 18.9397 18.1613 19.3414 18.1613C19.7251 18.1613 19.9842 18.4528 19.9842 18.8367C19.9842 19.2207 19.7251 19.5123 19.3414 19.5123C18.9397 19.5123 18.6939 19.2076 18.6939 18.8367ZM20.4216 18.8367V17.7818H19.9576V18.038C19.8099 17.848 19.5872 17.7288 19.2836 17.7288C18.6852 17.7288 18.2161 18.1926 18.2161 18.8367C18.2161 19.4814 18.6852 19.9447 19.2836 19.9447C19.5872 19.9447 19.8099 19.8255 19.9576 19.6355V19.8916H20.4216V18.8367ZM16.0735 18.8367C16.0735 19.4769 16.5242 19.9447 17.212 19.9447C17.5334 19.9447 17.7476 19.874 17.9795 19.6931L17.7567 19.3223C17.5825 19.446 17.3996 19.5123 17.1982 19.5123C16.8277 19.5077 16.5554 19.243 16.5554 18.8367C16.5554 18.4306 16.8277 18.1658 17.1982 18.1613C17.3996 18.1613 17.5825 18.2274 17.7567 18.3512L17.9795 17.9804C17.7476 17.7995 17.5334 17.7288 17.212 17.7288C16.5242 17.7288 16.0735 18.1966 16.0735 18.8367ZM22.0558 17.7288C21.788 17.7288 21.6138 17.8526 21.4932 18.038V17.7818H21.0333V19.8916H21.4978V18.709C21.4978 18.3598 21.6495 18.1658 21.9531 18.1658C22.0471 18.1658 22.1453 18.179 22.2434 18.2189L22.3864 17.7863C22.2837 17.7465 22.1498 17.7288 22.0558 17.7288ZM9.61745 17.9496C9.39408 17.804 9.0865 17.7288 8.74716 17.7288C8.20651 17.7288 7.85855 17.985 7.85855 18.4043C7.85855 18.7483 8.11764 18.9605 8.59494 19.0267L8.81413 19.0575C9.06861 19.0929 9.18868 19.1591 9.18868 19.2783C9.18868 19.4415 9.01905 19.5345 8.70225 19.5345C8.38079 19.5345 8.14876 19.4329 7.99245 19.3136L7.77372 19.6709C8.02822 19.8563 8.34959 19.9447 8.6976 19.9447C9.31388 19.9447 9.6711 19.6577 9.6711 19.2561C9.6711 18.8853 9.39007 18.6913 8.92553 18.625L8.70682 18.5937C8.50599 18.5675 8.34502 18.528 8.34502 18.3866C8.34502 18.232 8.49677 18.1395 8.75125 18.1395C9.02362 18.1395 9.28733 18.2411 9.41662 18.3204L9.61745 17.9496ZM15.6044 17.7288C15.3366 17.7288 15.1624 17.8526 15.0422 18.038V17.7818H14.5823V19.8916H15.0463V18.709C15.0463 18.3598 15.1982 18.1658 15.5016 18.1658C15.5957 18.1658 15.6938 18.179 15.7919 18.2189L15.935 17.7863C15.8323 17.7465 15.6984 17.7288 15.6044 17.7288ZM11.6446 17.7818H10.8858V17.1417H10.4167V17.7818H9.98381V18.2012H10.4167V19.1636C10.4167 19.6532 10.6088 19.9447 11.1576 19.9447C11.3589 19.9447 11.5909 19.8831 11.7381 19.7815L11.6042 19.3884C11.4657 19.4678 11.314 19.5077 11.1934 19.5077C10.9614 19.5077 10.8858 19.3663 10.8858 19.1546V18.2012H11.6446V17.7818ZM4.70666 19.8916V18.5675C4.70666 18.0688 4.38524 17.7333 3.86707 17.7288C3.5947 17.7243 3.31365 17.8081 3.11692 18.1042C2.96975 17.8703 2.73775 17.7288 2.41173 17.7288C2.18382 17.7288 1.96102 17.795 1.78677 18.042V17.7818H1.32227V19.8916H1.79086V18.722C1.79086 18.3558 1.99628 18.1613 2.31361 18.1613C2.62175 18.1613 2.77761 18.3598 2.77761 18.7175V19.8916H3.24671V18.722C3.24671 18.3558 3.46082 18.1613 3.76896 18.1613C4.08578 18.1613 4.23755 18.3598 4.23755 18.7175V19.8916H4.70666Z" fill="#9A9C9E"/>
<path d="M25.7552 12.8746V12.5664H25.674L25.58 12.7781L25.4865 12.5664H25.4047V12.8746H25.4625V12.6422L25.5503 12.8427H25.6101L25.698 12.6416V12.8746H25.7552ZM25.2396 12.8746V12.6189H25.3439V12.5669H25.0781V12.6189H25.1824V12.8746H25.2396Z" fill="#F79410"/>
<path d="M16.5147 14.2004H9.48242V1.70508H16.5147V14.2004Z" fill="#FF5F00"/>
<path d="M9.93397 7.95161C9.93397 5.4169 11.1343 3.15903 13.0035 1.70397C11.6367 0.639956 9.91144 0.00488281 8.0366 0.00488281C3.59799 0.00488281 0 3.56271 0 7.95161C0 12.3405 3.59799 15.8984 8.0366 15.8984C9.91144 15.8984 11.6367 15.2633 13.0035 14.1993C11.1343 12.7442 9.93397 10.4864 9.93397 7.95161Z" fill="#EB001B"/>
<path d="M26.0001 7.95161C26.0001 12.3405 22.4022 15.8984 17.9636 15.8984C16.0887 15.8984 14.3635 15.2633 12.9961 14.1993C14.8658 12.7442 16.0662 10.4864 16.0662 7.95161C16.0662 5.4169 14.8658 3.15903 12.9961 1.70397C14.3635 0.639956 16.0887 0.00488281 17.9636 0.00488281C22.4022 0.00488281 26.0001 3.56271 26.0001 7.95161Z" fill="#F79E1B"/>
</g>
<defs>
<clipPath id="clip0_680_8528">
<rect width="26" height="20" fill="white" transform="translate(0 0.00488281)"/>
</clipPath>
</defs>
</svg>
