<svg width="83" height="23" viewBox="0 0 83 23" fill="none" xmlns="http://www.w3.org/2000/svg">
<path d="M45.1832 6.24402H42.1124C41.8188 6.24402 41.544 6.38989 41.3795 6.63384L37.1432 12.8842L35.3483 6.87779C35.2356 6.50198 34.8901 6.24402 34.4986 6.24402H31.4805C31.1161 6.24402 30.8594 6.60335 30.9771 6.94867L34.3579 16.8929L31.1778 21.3886C30.9285 21.7414 31.1804 22.2293 31.6121 22.2293H34.6795C34.9699 22.2293 35.2422 22.0867 35.4084 21.8477L45.62 7.08053C45.8643 6.72697 45.6125 6.24402 45.1832 6.24402ZM24.6541 12.2017C24.3588 13.9506 22.9735 15.125 21.2058 15.125C20.3199 15.125 19.61 14.839 19.1543 14.2984C18.7027 13.7627 18.5324 12.9987 18.6755 12.149C18.9503 10.415 20.3585 9.20346 22.0991 9.20346C22.967 9.20346 23.6711 9.49191 24.1359 10.0375C24.6039 10.5872 24.7882 11.3553 24.6541 12.2017ZM28.9118 6.24393H25.8567C25.5951 6.24393 25.3722 6.43431 25.3311 6.69392L25.197 7.54939L24.9839 7.23951C24.3218 6.27772 22.8469 5.95548 21.3744 5.95548C17.9994 5.95548 15.1162 8.51859 14.5552 12.1127C14.2632 13.9061 14.6777 15.6195 15.6928 16.8153C16.6248 17.9139 17.9549 18.3713 19.5401 18.3713C22.2612 18.3713 23.7698 16.6208 23.7698 16.6208L23.6333 17.4713C23.5823 17.7944 23.8315 18.087 24.1589 18.087H26.9096C27.3464 18.087 27.7174 17.7697 27.7857 17.3378L29.4374 6.85957C29.4884 6.53651 29.2384 6.24393 28.9118 6.24393ZM10.5785 6.31745C10.2298 8.61188 8.48094 8.61188 6.78888 8.61188H5.82645L6.5018 4.32794C6.54207 4.06916 6.76502 3.87878 7.02661 3.87878H7.46833C8.61996 3.87878 9.70742 3.87878 10.2684 4.53563C10.604 4.92875 10.7052 5.51225 10.5785 6.31745ZM9.84233 0.330811H3.46233C3.02554 0.330811 2.65455 0.648933 2.58628 1.08079L0.00664078 17.4715C-0.0443597 17.7946 0.204885 18.0872 0.531452 18.0872H3.57832C4.01429 18.0872 4.38528 17.769 4.45355 17.338L5.15028 12.9156C5.21774 12.4837 5.58955 12.1656 6.02552 12.1656H8.04415C12.2467 12.1656 14.6726 10.1283 15.306 6.08916C15.5914 4.32382 15.3175 2.93595 14.4924 1.96428C13.5851 0.896178 11.9769 0.330811 9.84233 0.330811Z" fill="#002F86"/>
<path d="M78.0166 0.780115L75.3983 17.4708C75.3473 17.7939 75.5965 18.0865 75.9231 18.0865H78.557C78.993 18.0865 79.3648 17.7684 79.4323 17.3365L82.0144 0.945769C82.0654 0.622701 81.8161 0.330127 81.4888 0.330127H78.5422C78.2798 0.330127 78.0569 0.520507 78.0166 0.780115ZM70.1581 12.2006C69.8628 13.9495 68.4775 15.1239 66.7098 15.1239C65.8239 15.1239 65.114 14.8379 64.6583 14.2973C64.2058 13.7616 64.0364 12.9976 64.1795 12.1479C64.4543 10.4139 65.8625 9.20237 67.6031 9.20237C68.471 9.20237 69.1751 9.49083 69.6399 10.0364C70.1079 10.5861 70.2922 11.3542 70.1581 12.2006ZM74.4158 6.24284H71.3607C71.0991 6.24284 70.8762 6.43322 70.8351 6.69283L70.701 7.5483L70.4871 7.23842C69.8258 6.27663 68.3509 5.95439 66.8784 5.95439C63.5033 5.95439 60.6202 8.5175 60.0592 12.1116C59.7671 13.905 60.1817 15.6184 61.1968 16.8142C62.1288 17.9128 63.4589 18.3702 65.0441 18.3702C67.7652 18.3702 69.2738 16.6197 69.2738 16.6197L69.1372 17.4703C69.0862 17.7933 69.3355 18.0859 69.6629 18.0859H72.4136C72.8504 18.0859 73.2214 17.7686 73.2897 17.3368L74.9414 6.85848C74.9924 6.53542 74.7424 6.24284 74.4158 6.24284ZM56.0824 6.31636C55.7337 8.6108 53.9848 8.6108 52.2928 8.6108H51.3303L52.0057 4.32685C52.046 4.06807 52.2689 3.87769 52.5305 3.87769H52.9722C54.1239 3.87769 55.2113 3.87769 55.7723 4.53454C56.1079 4.92766 56.2091 5.51116 56.0824 6.31636ZM55.3462 0.329712H48.9662C48.5294 0.329712 48.1584 0.647835 48.0902 1.07969L45.5105 17.4704C45.4595 17.7935 45.7096 18.0861 46.0353 18.0861H49.3092C49.6144 18.0861 49.8744 17.8636 49.9221 17.5619L50.6542 12.9145C50.7216 12.4827 51.0934 12.1645 51.5294 12.1645H53.548C57.7507 12.1645 60.1765 10.1272 60.8099 6.08807C61.0953 4.32273 60.8214 2.93486 59.9963 1.96318C59.089 0.895081 57.4808 0.329712 55.3462 0.329712Z" fill="#009CDE"/>
</svg>
