<svg width="76" height="20" viewBox="0 0 76 20" fill="none" xmlns="http://www.w3.org/2000/svg">
<path d="M13.1261 0.96532C12.1907 0.322293 10.9701 0 9.46433 0H3.63475C3.17314 0 2.91811 0.230861 2.86967 0.692139L0.501574 15.5573C0.476962 15.7033 0.51349 15.8368 0.610824 15.9582C0.707601 16.0798 0.829325 16.1403 0.975103 16.1403H3.74411C4.22978 16.1403 4.49673 15.91 4.54573 15.4481L5.20145 11.4405C5.2254 11.2463 5.31081 11.0884 5.45659 10.9668C5.60226 10.8454 5.78445 10.766 6.00307 10.7297C6.22168 10.6936 6.42782 10.6753 6.62249 10.6753C6.8166 10.6753 7.04724 10.6877 7.31485 10.7118C7.58179 10.736 7.75196 10.7479 7.82491 10.7479C9.91369 10.7479 11.5532 10.1594 12.7436 8.98088C13.9335 7.80307 14.529 6.16978 14.529 4.08034C14.529 2.64728 14.061 1.60901 13.1261 0.964985V0.96532ZM10.1204 5.42886C9.99855 6.27914 9.68316 6.83753 9.17311 7.10481C8.66294 7.37242 7.93427 7.50562 6.9871 7.50562L5.78468 7.54192L6.40421 3.64334C6.45254 3.37639 6.61035 3.24275 6.87774 3.24275H7.57021C8.54133 3.24275 9.24616 3.38274 9.68339 3.6616C10.1204 3.94113 10.2662 4.53036 10.1204 5.42886V5.42886Z" fill="#003087"/>
<path d="M74.6428 0H71.947C71.679 0 71.5213 0.133641 71.4732 0.40103L69.1049 15.5579L69.0684 15.6308C69.0684 15.7528 69.1169 15.8676 69.2144 15.977C69.3109 16.0861 69.433 16.1408 69.5785 16.1408H71.9836C72.4443 16.1408 72.6995 15.9105 72.7488 15.4487L75.1169 0.546807V0.510613C75.1168 0.170391 74.9584 0.000446918 74.6428 0.000446918V0Z" fill="#009CDE"/>
<path d="M42.0738 5.8665C42.0738 5.74534 42.025 5.62974 41.9285 5.52071C41.831 5.41146 41.7217 5.35645 41.6005 5.35645H38.7951C38.5273 5.35645 38.3087 5.4785 38.139 5.72072L34.277 11.4047L32.6739 5.93956C32.5518 5.55123 32.285 5.35645 31.8724 5.35645H29.1393C29.0176 5.35645 28.9084 5.41124 28.8118 5.52071C28.7144 5.62974 28.666 5.74556 28.666 5.8665C28.666 5.91539 28.9029 6.6317 29.3764 8.0162C29.85 9.40114 30.36 10.895 30.9066 12.4982C31.4532 14.1011 31.7384 14.9517 31.7628 15.0481C29.7709 17.769 28.7754 19.2263 28.7754 19.4203C28.7754 19.7363 28.933 19.894 29.249 19.894H32.0545C32.3215 19.894 32.54 19.7729 32.7104 19.5299L42.0014 6.12142C42.0496 6.07331 42.0738 5.98867 42.0738 5.86639V5.8665Z" fill="#003087"/>
<path d="M68.1996 5.35659H65.4305C65.0901 5.35659 64.8844 5.75751 64.8115 6.55924C64.1791 5.5879 63.0262 5.10156 61.3498 5.10156C59.601 5.10156 58.1131 5.75751 56.8867 7.06918C55.6599 8.38086 55.0469 9.92373 55.0469 11.6967C55.0469 13.1301 55.4658 14.2716 56.3036 15.1214C57.1417 15.9722 58.2649 16.3967 59.6742 16.3967C60.3785 16.3967 61.095 16.2507 61.8237 15.9595C62.5523 15.668 63.1226 15.2796 63.5363 14.7936C63.5363 14.818 63.5115 14.9269 63.4635 15.1211C63.4144 15.3158 63.3904 15.462 63.3904 15.5583C63.3904 15.9474 63.5479 16.1412 63.8642 16.1412H66.3784C66.8393 16.1412 67.1068 15.9109 67.1794 15.4491L68.6735 5.93948C68.6974 5.79359 68.6611 5.66029 68.5641 5.53867C68.4665 5.41751 68.3453 5.35659 68.1996 5.35659V5.35659ZM63.445 12.5346C62.8256 13.1419 62.0786 13.4454 61.2042 13.4454C60.4995 13.4454 59.9292 13.2514 59.4918 12.8625C59.0543 12.4747 58.8357 11.9402 58.8357 11.2593C58.8357 10.3613 59.1394 9.60155 59.7469 8.98224C60.3533 8.36282 61.107 8.05322 62.0057 8.05322C62.6853 8.05322 63.2501 8.25357 63.6999 8.65415C64.1488 9.05507 64.3742 9.60767 64.3742 10.3123C64.374 11.1866 64.0643 11.9277 63.445 12.5346Z" fill="#009CDE"/>
<path d="M26.8114 5.35659H24.0423C23.7017 5.35659 23.4957 5.75751 23.4227 6.55924C22.7669 5.5879 21.613 5.10156 19.9614 5.10156C18.2125 5.10156 16.7245 5.75751 15.4981 7.06918C14.2713 8.38086 13.6582 9.92373 13.6582 11.6967C13.6582 13.1301 14.0773 14.2716 14.9153 15.1214C15.7533 15.9722 16.8764 16.3967 18.2854 16.3967C18.9652 16.3967 19.67 16.2507 20.3986 15.9595C21.1273 15.668 21.7103 15.2796 22.1475 14.7936C22.05 15.0848 22.0017 15.3399 22.0017 15.5583C22.0017 15.9474 22.1595 16.1412 22.4753 16.1412H24.9893C25.4505 16.1412 25.718 15.9109 25.7909 15.4491L27.2847 5.93948C27.3086 5.79359 27.2723 5.66029 27.1754 5.53867C27.0782 5.41751 26.9569 5.35659 26.8114 5.35659V5.35659ZM22.0566 12.5526C21.4371 13.1485 20.6777 13.4454 19.7795 13.4454C19.0747 13.4454 18.51 13.2514 18.0852 12.8625C17.6599 12.4747 17.4475 11.9402 17.4475 11.2593C17.4475 10.3613 17.751 9.60155 18.3585 8.98224C18.9653 8.36282 19.7184 8.05311 20.6174 8.05311C21.2972 8.05311 21.8619 8.25357 22.3118 8.65415C22.7608 9.05507 22.9857 9.60767 22.9857 10.3123C22.9856 11.211 22.676 11.9582 22.0566 12.5526V12.5526Z" fill="#003087"/>
<path d="M54.5149 0.96532C53.5797 0.322293 52.3594 0 50.8533 0H45.0601C44.5742 0 44.3068 0.230861 44.2586 0.692139L41.8902 15.5573C41.8656 15.7033 41.9022 15.8368 41.9996 15.9582C42.0959 16.0798 42.218 16.1403 42.3638 16.1403H45.3513C45.6427 16.1403 45.8369 15.9826 45.9344 15.6667L46.5902 11.4405C46.6144 11.2463 46.6994 11.0884 46.8454 10.9668C46.9911 10.8454 47.1731 10.766 47.3919 10.7297C47.6103 10.6936 47.8165 10.6753 48.0112 10.6753C48.2055 10.6753 48.436 10.6877 48.7034 10.7118C48.9704 10.736 49.1411 10.7479 49.2134 10.7479C51.3027 10.7479 52.9419 10.1594 54.1323 8.98088C55.3225 7.80307 55.9176 6.16978 55.9176 4.08034C55.9177 2.64728 55.4498 1.6089 54.5149 0.964985V0.96532ZM50.7805 6.95892C50.246 7.3232 49.4443 7.50528 48.3759 7.50528L47.2097 7.54181L47.8292 3.64311C47.8773 3.37628 48.0352 3.24242 48.3027 3.24242H48.9583C49.4927 3.24242 49.9177 3.26681 50.234 3.31525C50.5492 3.36403 50.8533 3.5156 51.1448 3.77052C51.4364 4.02565 51.582 4.39628 51.582 4.88184C51.582 5.90239 51.3145 6.59431 50.7805 6.95892Z" fill="#009CDE"/>
</svg>
