<svg width="17" height="16" viewBox="0 0 17 16" fill="none" xmlns="http://www.w3.org/2000/svg">
<path d="M14.0689 6.205C14.1829 6.60322 14.5981 6.83363 14.9964 6.71964C15.3946 6.60565 15.625 6.19042 15.511 5.7922L14.0689 6.205ZM13.09 3.0486L13.6301 2.52824L13.6295 2.52764L13.09 3.0486ZM9.61096 1.1336L9.7625 0.399071L9.7611 0.398784L9.61096 1.1336ZM5.68996 1.5336L5.39453 0.844239L5.39379 0.844557L5.68996 1.5336ZM2.64396 4.1096L2.01365 3.70314L2.01364 3.70315L2.64396 4.1096ZM3.48796 12.9486L4.03029 12.4306L4.02996 12.4302L3.48796 12.9486ZM12.057 13.8196L12.484 14.4362L12.4841 14.4361L12.057 13.8196ZM15.2536 10.9554C15.407 10.5706 15.2195 10.1343 14.8347 9.98094C14.45 9.82753 14.0137 10.0151 13.8603 10.3998L15.2536 10.9554ZM14.0641 5.80996C13.9599 6.21085 14.2004 6.6203 14.6013 6.72449C15.0022 6.82868 15.4117 6.58815 15.5158 6.18725L14.0641 5.80996ZM16.2258 3.45525C16.33 3.05435 16.0895 2.6449 15.6886 2.54072C15.2877 2.43653 14.8783 2.67706 14.7741 3.07796L16.2258 3.45525ZM14.5902 6.72151C14.9894 6.83184 15.4025 6.59762 15.5129 6.19836C15.6232 5.79911 15.389 5.38602 14.9897 5.2757L14.5902 6.72151ZM12.3407 4.5437C11.9415 4.43337 11.5284 4.66759 11.418 5.06684C11.3077 5.46609 11.5419 5.87919 11.9412 5.98951L12.3407 4.5437ZM15.511 5.7922C15.1602 4.56683 14.5144 3.44613 13.6301 2.52824L12.5498 3.56897C13.264 4.31028 13.7856 5.21537 14.0689 6.205L15.511 5.7922ZM13.6295 2.52764C12.5842 1.44503 11.2364 0.703154 9.7625 0.399073L9.45941 1.86813C10.6375 2.11119 11.7148 2.7042 12.5504 3.56956L13.6295 2.52764ZM9.7611 0.398784C8.29418 0.0990591 6.77071 0.254476 5.39453 0.844239L5.98538 2.22297C7.08071 1.75356 8.29327 1.62986 9.46082 1.86842L9.7611 0.398784ZM5.39379 0.844557C4.00796 1.44022 2.83115 2.43545 2.01365 3.70314L3.27426 4.51607C3.93013 3.49901 4.87429 2.70054 5.98613 2.22265L5.39379 0.844557ZM2.01364 3.70315C0.0285414 6.78162 0.414134 10.8198 2.94595 13.467L4.02996 12.4302C1.97778 10.2845 1.66523 7.01133 3.27427 4.51605L2.01364 3.70315ZM2.94562 13.4666C5.45364 16.0923 9.49893 16.5035 12.484 14.4362L11.63 13.203C9.25163 14.8501 6.02855 14.5225 4.03029 12.4306L2.94562 13.4666ZM12.4841 14.4361C13.7293 13.5732 14.6926 12.3625 15.2536 10.9554L13.8603 10.3998C13.4084 11.5332 12.6326 12.5082 11.6298 13.2032L12.4841 14.4361ZM15.5158 6.18725L16.2258 3.45525L14.7741 3.07796L14.0641 5.80996L15.5158 6.18725ZM14.9897 5.2757L12.3407 4.5437L11.9412 5.98951L14.5902 6.72151L14.9897 5.2757Z" fill="#505567"/>
</svg>
