<svg width="16" height="16" viewBox="0 0 16 16" fill="none" xmlns="http://www.w3.org/2000/svg">
<path d="M0.803654 14.1365C0.510761 14.4294 0.510761 14.9043 0.803654 15.1972C1.09655 15.4901 1.57142 15.4901 1.86431 15.1972L0.803654 14.1365ZM8.53098 8.53049C8.82387 8.2376 8.82387 7.76273 8.53098 7.46983C8.23809 7.17694 7.76321 7.17694 7.47032 7.46983L8.53098 8.53049ZM7.47032 7.46983C7.17743 7.76273 7.17743 8.2376 7.47032 8.53049C7.76321 8.82339 8.23809 8.82339 8.53098 8.53049L7.47032 7.46983ZM15.1976 1.86383C15.4905 1.57093 15.4905 1.09606 15.1976 0.803166C14.9048 0.510273 14.4299 0.510273 14.137 0.803166L15.1976 1.86383ZM8.53098 7.46983C8.23809 7.17694 7.76321 7.17694 7.47032 7.46983C7.17743 7.76273 7.17743 8.2376 7.47032 8.53049L8.53098 7.46983ZM14.137 15.1972C14.4299 15.4901 14.9048 15.4901 15.1976 15.1972C15.4905 14.9043 15.4905 14.4294 15.1976 14.1365L14.137 15.1972ZM7.47032 8.53049C7.76321 8.82339 8.23809 8.82339 8.53098 8.53049C8.82387 8.2376 8.82387 7.76273 8.53098 7.46983L7.47032 8.53049ZM1.86431 0.803166C1.57142 0.510273 1.09655 0.510273 0.803654 0.803166C0.510761 1.09606 0.510761 1.57093 0.803654 1.86383L1.86431 0.803166ZM1.86431 15.1972L8.53098 8.53049L7.47032 7.46983L0.803654 14.1365L1.86431 15.1972ZM8.53098 8.53049L15.1976 1.86383L14.137 0.803166L7.47032 7.46983L8.53098 8.53049ZM7.47032 8.53049L14.137 15.1972L15.1976 14.1365L8.53098 7.46983L7.47032 8.53049ZM8.53098 7.46983L1.86431 0.803166L0.803654 1.86383L7.47032 8.53049L8.53098 7.46983Z" fill="#222A46"/>
</svg>
