<svg width="14" height="12" viewBox="0 0 14 12" fill="none" xmlns="http://www.w3.org/2000/svg">
<path d="M13 6.01027C13 7.07142 10.3137 10.8103 7 10.8103C3.68629 10.8103 1 7.07142 1 6.01027C1 4.94911 3.68629 1.21027 7 1.21027C10.3137 1.21027 13 4.94911 13 6.01027Z" fill="white"/>
<path d="M12.25 6.01027C12.25 6.00671 12.2456 6.0798 12.1799 6.24734C12.1192 6.40194 12.0227 6.59605 11.8875 6.81852C11.6174 7.26316 11.2172 7.78148 10.7169 8.27335C9.69978 9.27318 8.37856 10.0603 7 10.0603V11.5603C8.93515 11.5603 10.6139 10.4779 11.7684 9.34305C12.3538 8.76756 12.8324 8.1522 13.1695 7.59736C13.3379 7.32009 13.4771 7.048 13.5763 6.79502C13.6705 6.55499 13.75 6.27911 13.75 6.01027H12.25ZM7 10.0603C5.62144 10.0603 4.30022 9.27318 3.28313 8.27335C2.78277 7.78148 2.38263 7.26316 2.11249 6.81852C1.97733 6.59605 1.88075 6.40194 1.82012 6.24734C1.75441 6.0798 1.75 6.00671 1.75 6.01027H0.25C0.25 6.27911 0.329538 6.55499 0.423678 6.79502C0.522895 7.048 0.662076 7.32009 0.830534 7.59736C1.16763 8.1522 1.64616 8.76756 2.23159 9.34305C3.38607 10.4779 5.06485 11.5603 7 11.5603V10.0603ZM1.75 6.01027C1.75 6.01382 1.75441 5.94073 1.82012 5.77319C1.88075 5.61859 1.97733 5.42448 2.11249 5.20202C2.38263 4.75737 2.78277 4.23905 3.28313 3.74718C4.30022 2.74736 5.62144 1.96027 7 1.96027V0.460266C5.06485 0.460266 3.38607 1.5426 2.23159 2.67748C1.64616 3.25298 1.16763 3.86833 0.830534 4.42317C0.662076 4.70045 0.522895 4.97253 0.423678 5.22551C0.329538 5.46554 0.25 5.74143 0.25 6.01027H1.75ZM7 1.96027C8.37856 1.96027 9.69978 2.74736 10.7169 3.74718C11.2172 4.23905 11.6174 4.75737 11.8875 5.20202C12.0227 5.42448 12.1192 5.61859 12.1799 5.77319C12.2456 5.94073 12.25 6.01382 12.25 6.01027H13.75C13.75 5.74143 13.6705 5.46554 13.5763 5.22551C13.4771 4.97253 13.3379 4.70045 13.1695 4.42317C12.8324 3.86833 12.3538 3.25298 11.7684 2.67748C10.6139 1.5426 8.93515 0.460266 7 0.460266V1.96027Z" fill="#505567"/>
<path d="M6.99922 7.81027C7.99333 7.81027 8.79922 7.00438 8.79922 6.01027C8.79922 5.01615 7.99333 4.21027 6.99922 4.21027C6.00511 4.21027 5.19922 5.01615 5.19922 6.01027C5.19922 7.00438 6.00511 7.81027 6.99922 7.81027Z" fill="white" stroke="#505567" stroke-width="1.5" stroke-linecap="round" stroke-linejoin="round"/>
</svg>
