<svg width="7" height="12" viewBox="0 0 7 12" fill="none" xmlns="http://www.w3.org/2000/svg">
<path d="M1.37629 8.34426C1.19445 8.13644 0.878566 8.11538 0.670748 8.29722C0.462929 8.47907 0.441871 8.79495 0.623712 9.00276L1.37629 8.34426ZM2.95704 11.6694C3.13889 11.8773 3.45477 11.8983 3.66259 11.7165C3.8704 11.5346 3.89146 11.2187 3.70962 11.0109L2.95704 11.6694ZM2.83333 11.3402C2.83333 11.6163 3.05719 11.8402 3.33333 11.8402C3.60948 11.8402 3.83333 11.6163 3.83333 11.3402H2.83333ZM3.83333 0.673513C3.83333 0.397371 3.60948 0.173513 3.33333 0.173513C3.05719 0.173513 2.83333 0.397371 2.83333 0.673513H3.83333ZM2.95704 11.0109C2.7752 11.2187 2.79626 11.5346 3.00408 11.7165C3.2119 11.8983 3.52778 11.8773 3.70962 11.6694L2.95704 11.0109ZM6.04296 9.00276C6.2248 8.79495 6.20374 8.47907 5.99592 8.29722C5.7881 8.11538 5.47222 8.13644 5.29038 8.34426L6.04296 9.00276ZM3.70962 0.344261C3.52778 0.136443 3.2119 0.115384 3.00408 0.297225C2.79626 0.479066 2.7752 0.794948 2.95704 1.00277L3.70962 0.344261ZM5.29038 3.66943C5.47222 3.87725 5.7881 3.89831 5.99592 3.71647C6.20374 3.53463 6.2248 3.21875 6.04296 3.01093L5.29038 3.66943ZM3.70962 1.00277C3.89146 0.794948 3.8704 0.479066 3.66259 0.297225C3.45477 0.115384 3.13889 0.136443 2.95704 0.344261L3.70962 1.00277ZM0.623712 3.01093C0.441871 3.21875 0.462929 3.53463 0.670748 3.71647C0.878566 3.89831 1.19445 3.87725 1.37629 3.66943L0.623712 3.01093ZM0.623712 9.00276L2.95704 11.6694L3.70962 11.0109L1.37629 8.34426L0.623712 9.00276ZM3.83333 11.3402L3.83333 0.673513H2.83333L2.83333 11.3402H3.83333ZM3.70962 11.6694L6.04296 9.00276L5.29038 8.34426L2.95704 11.0109L3.70962 11.6694ZM2.95704 1.00277L5.29038 3.66943L6.04296 3.01093L3.70962 0.344261L2.95704 1.00277ZM2.95704 0.344261L0.623712 3.01093L1.37629 3.66943L3.70962 1.00277L2.95704 0.344261Z" fill="#505567"/>
</svg>
