<svg width="12" height="12" viewBox="0 0 12 12" fill="none" xmlns="http://www.w3.org/2000/svg">
<path d="M11 6.75C11.4142 6.75 11.75 6.41421 11.75 6C11.75 5.58579 11.4142 5.25 11 5.25L11 6.75ZM1 5.25C0.585787 5.25 0.25 5.58579 0.25 6C0.25 6.41421 0.585787 6.75 1 6.75L1 5.25ZM11 5.25L1 5.25L1 6.75L11 6.75L11 5.25Z" fill="#7D818E"/>
<path d="M6.75 1C6.75 0.585786 6.41421 0.25 6 0.25C5.58579 0.25 5.25 0.585786 5.25 1L6.75 1ZM5.25 11C5.25 11.4142 5.58579 11.75 6 11.75C6.41421 11.75 6.75 11.4142 6.75 11H5.25ZM5.25 1L5.25 11H6.75L6.75 1L5.25 1Z" fill="#7D818E"/>
</svg>
