<svg width="14" height="14" viewBox="0 0 14 14" fill="none" xmlns="http://www.w3.org/2000/svg">
<path fill-rule="evenodd" clip-rule="evenodd" d="M8.54018 4.1044L6.99935 1.17523L5.45852 4.1044C5.34966 4.31845 5.19211 4.50398 4.99852 4.64607C4.80398 4.78888 4.57888 4.88446 4.34102 4.92523L1.16602 5.54773L3.38268 8.19857C3.68583 8.5308 3.82887 8.9788 3.77435 9.42523L3.35268 12.8419L6.27602 11.4252C6.50153 11.316 6.74877 11.259 6.99935 11.2586C7.23445 11.2593 7.46594 11.3164 7.67435 11.4252L10.666 12.7544L10.2443 9.37857C10.1911 8.93311 10.3343 8.48653 10.6368 8.15523L12.8327 5.54773L9.65768 4.92523C9.41953 4.88458 9.19413 4.789 8.99935 4.64607C8.80606 4.50388 8.6488 4.31836 8.54018 4.1044Z" fill="#0093A2" stroke="#0093A2" stroke-width="1.5" stroke-linecap="round" stroke-linejoin="round"/>
</svg>
