<svg width="18" height="12" viewBox="0 0 18 12" fill="none" xmlns="http://www.w3.org/2000/svg">
<path fill-rule="evenodd" clip-rule="evenodd" d="M17.587 0.812527C17.7122 0.344211 17.587 0 16.9915 0H15.0223C14.5215 0 14.2908 0.297316 14.1657 0.625263C14.1657 0.625263 13.1642 3.36521 11.7455 5.145C11.2865 5.66021 11.0779 5.82395 10.8276 5.82395C10.7024 5.82395 10.5212 5.66021 10.5212 5.1919V0.812527C10.5212 0.250422 10.3759 0 9.95858 0H6.8641C6.55128 0 6.36308 0.260842 6.36308 0.508106C6.36308 1.041 7.07228 1.16384 7.14542 2.66258V5.9179C7.14542 6.63158 7.03064 6.76105 6.78027 6.76105C6.11271 6.76105 4.48895 4.00863 3.52573 0.859421C3.33697 0.247263 3.14764 0 2.64437 0H0.675158C0.112526 0 0 0.297316 0 0.625263C0 1.21074 0.667702 4.11474 3.10854 7.95537C4.73595 10.578 7.02839 12 9.11463 12C10.3665 12 10.5212 11.6842 10.5212 11.1403V9.15789C10.5212 8.52632 10.6398 8.40032 11.036 8.40032C11.3283 8.40032 11.8289 8.56421 12.9973 9.82879C14.3325 11.3274 14.5525 12 15.3036 12H17.2728C17.8354 12 18.1167 11.6842 17.9544 11.061C17.7769 10.4398 17.1394 9.53889 16.2935 8.47058C15.8346 7.86158 15.146 7.20584 14.9376 6.87805C14.6454 6.45647 14.7288 6.26921 14.9376 5.89468C14.9376 5.89468 17.3366 2.10079 17.587 0.812685V0.812527Z" fill="#505567"/>
</svg>
