<svg width="12" height="7" viewBox="0 0 12 7" fill="none" xmlns="http://www.w3.org/2000/svg">
<path d="M3.66193 1.38312C3.86975 1.20128 3.89081 0.885402 3.70897 0.677584C3.52713 0.469765 3.21125 0.448707 3.00343 0.630548L3.66193 1.38312ZM0.336763 2.96388C0.128945 3.14572 0.107886 3.4616 0.289727 3.66942C0.471568 3.87724 0.78745 3.8983 0.995268 3.71646L0.336763 2.96388ZM0.666016 2.84017C0.389873 2.84017 0.166016 3.06403 0.166016 3.34017C0.166016 3.61631 0.389873 3.84017 0.666016 3.84017V2.84017ZM11.3327 3.84017C11.6088 3.84017 11.8327 3.61631 11.8327 3.34017C11.8327 3.06403 11.6088 2.84017 11.3327 2.84017V3.84017ZM0.995268 2.96388C0.78745 2.78204 0.471568 2.8031 0.289727 3.01092C0.107886 3.21873 0.128945 3.53462 0.336763 3.71646L0.995268 2.96388ZM3.00343 6.04979C3.21125 6.23163 3.52713 6.21057 3.70897 6.00276C3.89081 5.79494 3.86975 5.47906 3.66193 5.29721L3.00343 6.04979ZM11.6619 3.71646C11.8698 3.53462 11.8908 3.21873 11.709 3.01092C11.5271 2.8031 11.2112 2.78204 11.0034 2.96388L11.6619 3.71646ZM8.33676 5.29721C8.12894 5.47906 8.10789 5.79494 8.28973 6.00276C8.47157 6.21057 8.78745 6.23163 8.99527 6.04979L8.33676 5.29721ZM11.0034 3.71646C11.2112 3.8983 11.5271 3.87724 11.709 3.66942C11.8908 3.4616 11.8698 3.14572 11.6619 2.96388L11.0034 3.71646ZM8.99527 0.630548C8.78745 0.448707 8.47157 0.469765 8.28973 0.677584C8.10789 0.885402 8.12894 1.20128 8.33676 1.38312L8.99527 0.630548ZM3.00343 0.630548L0.336763 2.96388L0.995268 3.71646L3.66193 1.38312L3.00343 0.630548ZM0.666016 3.84017H11.3327V2.84017H0.666016V3.84017ZM0.336763 3.71646L3.00343 6.04979L3.66193 5.29721L0.995268 2.96388L0.336763 3.71646ZM11.0034 2.96388L8.33676 5.29721L8.99527 6.04979L11.6619 3.71646L11.0034 2.96388ZM11.6619 2.96388L8.99527 0.630548L8.33676 1.38312L11.0034 3.71646L11.6619 2.96388Z" fill="#505567"/>
</svg>
