<svg width="20" height="18" viewBox="0 0 20 18" fill="none" xmlns="http://www.w3.org/2000/svg">
<path d="M1.56252 2.29785H17.1875C18.0469 2.29785 18.75 3.00097 18.75 3.86037V5.73538C18.75 6.59478 18.0469 7.2979 17.1875 7.2979H1.56252C0.703122 7.29782 0 6.5947 0 5.73534V3.86033C0 3.00097 0.703122 2.29785 1.56252 2.29785Z" fill="#A86A3F"/>
<path d="M4.98438 3.9692L14.7656 1.37547C15.0938 1.28172 15.4375 1.48485 15.5312 1.81298L17.1562 7.81298C17.25 8.14112 17.0469 8.48484 16.7187 8.57859L3.98438 11.9692C3.65625 12.0629 3.31252 11.8598 3.21878 11.5317L2.03125 7.12545L4.98438 3.9692Z" fill="#5EBA6D"/>
<path d="M15.4534 7.62529L13.3441 8.18777C13.1722 8.23467 13.0003 8.14088 12.9691 7.96902C12.9222 7.79715 13.016 7.62525 13.1878 7.59403L15.0003 7.10966L14.0316 3.48467L12.2191 3.96904C12.0472 4.01593 11.8753 3.92214 11.8441 3.75028C11.7972 3.57842 11.891 3.40652 12.0629 3.37529L14.1722 2.81281C14.3441 2.76592 14.516 2.85971 14.5472 3.03157L15.6722 7.2503C15.719 7.42217 15.6253 7.59403 15.4534 7.62529ZM6.70342 9.98468L4.59405 10.5472C4.42219 10.5941 4.25029 10.5003 4.21906 10.3284L3.09406 6.10967C3.04717 5.9378 3.14096 5.7659 3.31282 5.73468L5.42218 5.1722C5.59405 5.1253 5.76595 5.21909 5.79717 5.39095C5.84406 5.56282 5.75028 5.73472 5.57841 5.76594L3.76592 6.25031L4.73465 9.8753L6.54715 9.39093C6.71901 9.34404 6.89091 9.43783 6.92213 9.60969C6.96903 9.76592 6.87528 9.93778 6.70342 9.98468Z" fill="#B3F0BD"/>
<path d="M0.125046 6.15698C2.90627 4.5632 10.4063 0.172564 10.4063 0.172564C10.7032 0.000700906 11.0938 0.0944479 11.2657 0.39132L14.3907 5.76632C14.5626 6.06319 14.4532 6.43818 14.1563 6.61008L2.71878 13.1726C2.42191 13.3444 2.03129 13.2507 1.85938 12.9538C1.85938 12.9538 0.984399 11.1726 0.109375 9.67255C0.109415 6.15698 0.125046 7.3132 0.125046 6.15698Z" fill="#5EBA6D"/>
<path d="M12.7961 5.594L10.6087 1.81275C10.5149 1.65652 10.3274 1.60962 10.1868 1.70337L8.29616 2.79711C8.13993 2.89086 8.09303 3.07835 8.18678 3.21899C8.28053 3.37522 8.46802 3.42211 8.60866 3.32837L10.2337 2.39086L12.1087 5.64086L10.4837 6.57836C10.3274 6.67211 10.2806 6.85961 10.3743 7.00025C10.468 7.15648 10.6555 7.20337 10.7962 7.10962L12.6868 6.01588C12.8274 5.93777 12.8899 5.75027 12.7961 5.594ZM4.5149 10.0159L2.8899 10.9534L1.01488 7.70337L2.63988 6.76586C2.79611 6.67211 2.84301 6.48462 2.74926 6.34398C2.65551 6.18775 2.46802 6.14085 2.32738 6.2346L0.43677 7.32834C0.280539 7.42209 0.233645 7.60958 0.327392 7.75022L2.51487 11.5315C2.60862 11.6877 2.79611 11.7346 2.93675 11.6409L4.82736 10.5471C4.9836 10.4534 5.03049 10.2659 4.93674 10.1252C4.85863 9.98463 4.67113 9.92211 4.5149 10.0159ZM5.31177 4.50026C4.10865 5.18775 3.7024 6.71901 4.38989 7.92212C5.09301 9.12524 6.60863 9.53149 7.81175 8.844C9.01487 8.15651 9.42112 6.62526 8.73363 5.42214C8.03051 4.23461 6.51489 3.81277 5.31177 4.50026ZM12.7961 5.594L10.6087 1.81275C10.5149 1.65652 10.3274 1.60962 10.1868 1.70337L8.29616 2.79711C8.13993 2.89086 8.09303 3.07835 8.18678 3.21899C8.28053 3.37522 8.46802 3.42211 8.60866 3.32837L10.2337 2.39086L12.1087 5.64086L10.4837 6.57836C10.3274 6.67211 10.2806 6.85961 10.3743 7.00025C10.468 7.15648 10.6555 7.20337 10.7962 7.10962L12.6868 6.01588C12.8274 5.93777 12.8899 5.75027 12.7961 5.594ZM4.5149 10.0159L2.8899 10.9534L1.01488 7.70337L2.63988 6.76586C2.79611 6.67211 2.84301 6.48462 2.74926 6.34398C2.65551 6.18775 2.46802 6.14085 2.32738 6.2346L0.43677 7.32834C0.280539 7.42209 0.233645 7.60958 0.327392 7.75022L2.51487 11.5315C2.60862 11.6877 2.79611 11.7346 2.93675 11.6409L4.82736 10.5471C4.9836 10.4534 5.03049 10.2659 4.93674 10.1252C4.85863 9.98463 4.67113 9.92211 4.5149 10.0159ZM5.31177 4.50026C4.10865 5.18775 3.7024 6.71901 4.38989 7.92212C5.09301 9.12524 6.60863 9.53149 7.81175 8.844C9.01487 8.15651 9.42112 6.62526 8.73363 5.42214C8.03051 4.23461 6.51489 3.81277 5.31177 4.50026Z" fill="#B3F0BD"/>
<path d="M17.8125 17.9229H1.56252C0.703122 17.9229 0 17.2197 0 16.3603V5.11036H17.8125C18.6719 5.11036 19.375 5.81348 19.375 6.67288V16.3604C19.375 17.2197 18.6719 17.9229 17.8125 17.9229ZM1.25001 5.11036H0V3.86035C0 4.54784 0.562482 5.11036 1.25001 5.11036Z" fill="#C47E4D"/>
<path d="M19.375 14.0166H16.875C15.6719 14.0166 14.6875 13.0322 14.6875 11.8291C14.6875 10.626 15.6719 9.6416 16.875 9.6416H19.375C19.7187 9.6416 20 9.92284 20 10.2666V13.3916C20 13.7353 19.7187 14.0166 19.375 14.0166Z" fill="#A86A3F"/>
<path d="M16.875 10.5791C17.5625 10.5791 18.125 11.1416 18.125 11.8291C18.125 12.5166 17.5625 13.0791 16.875 13.0791C16.1875 13.0791 15.625 12.5166 15.625 11.8291C15.625 11.1416 16.1875 10.5791 16.875 10.5791Z" fill="#EFC75E"/>
<path d="M17.1875 12.7666C16.5 12.7666 15.9375 12.2041 15.9375 11.5166C15.9375 11.251 16.0156 11.001 16.1563 10.7979C15.8281 11.0166 15.625 11.3916 15.625 11.8291C15.625 12.5166 16.1875 13.0791 16.875 13.0791C17.2969 13.0791 17.6719 12.8604 17.9063 12.5479C17.7031 12.6885 17.4531 12.7666 17.1875 12.7666Z" fill="#D7B354"/>
<path d="M17.8125 17.2979H1.56252C0.703122 17.2979 0 16.5947 0 15.7354V16.3604C0 17.2197 0.703122 17.9229 1.56252 17.9229H17.8125C18.6719 17.9229 19.375 17.2197 19.375 16.3604V15.7354C19.375 16.5947 18.6719 17.2979 17.8125 17.2979Z" fill="#B27245"/>
<path d="M17.8125 5.11036H1.25001C0.562482 5.11036 0 4.54784 0 3.86035V4.48536C0 5.17285 0.562482 5.73537 1.25001 5.73537H17.8125C18.6719 5.73537 19.375 6.43849 19.375 7.29789V6.67288C19.375 5.81349 18.6719 5.11036 17.8125 5.11036Z" fill="#CA8B5F"/>
</svg>
