<svg width="25" height="21" viewBox="0 0 25 21" fill="none" xmlns="http://www.w3.org/2000/svg">
<g clip-path="url(#clip0_680_8535)">
<path d="M15.7153 14.3665H9.09375V2.25H15.7153V14.3665Z" fill="#6C6BBD"/>
<path d="M24.4148 13.0811V12.7822H24.3383L24.2498 12.9875L24.1617 12.7822H24.0848V13.0811H24.1392V12.8558L24.2219 13.0502H24.2783L24.361 12.8552V13.0811H24.4148ZM23.9294 13.0811V12.8332H24.0275V12.7828H23.7773V12.8332H23.8755V13.0811H23.9294Z" fill="#0099DF"/>
<path d="M21.1039 19.7324V19.7829H21.1497C21.1597 19.7829 21.1684 19.7804 21.1742 19.7765C21.1804 19.7726 21.1838 19.7657 21.1838 19.7574C21.1838 19.7491 21.1804 19.7427 21.1742 19.7388C21.1684 19.7343 21.1597 19.7324 21.1497 19.7324H21.1039ZM21.1501 19.6971C21.1737 19.6971 21.192 19.7026 21.205 19.7133C21.218 19.7241 21.2242 19.7388 21.2242 19.7574C21.2242 19.7731 21.2194 19.7858 21.2088 19.7961C21.1987 19.8059 21.1838 19.8123 21.165 19.8147L21.2256 19.8857H21.1785L21.1222 19.8152H21.1039V19.8857H21.0645V19.6971H21.1501ZM21.1381 19.9504C21.1597 19.9504 21.18 19.9465 21.1982 19.9382C21.217 19.9299 21.2334 19.9186 21.2473 19.9043C21.2612 19.8902 21.2723 19.8735 21.2805 19.8539C21.2882 19.8348 21.2925 19.8143 21.2925 19.7922C21.2925 19.7701 21.2882 19.7496 21.2805 19.7305C21.2723 19.7113 21.2612 19.6942 21.2473 19.68C21.2334 19.6658 21.217 19.6545 21.1982 19.6466C21.18 19.6383 21.1597 19.6344 21.1381 19.6344C21.1165 19.6344 21.0957 19.6383 21.077 19.6466C21.0578 19.6545 21.0409 19.6658 21.0269 19.68C21.013 19.6942 21.0019 19.7113 20.9942 19.7305C20.986 19.7496 20.9822 19.7701 20.9822 19.7922C20.9822 19.8143 20.986 19.8348 20.9942 19.8539C21.0019 19.8735 21.013 19.8902 21.0269 19.9043C21.0409 19.9186 21.0578 19.9299 21.077 19.9382C21.0957 19.9465 21.1165 19.9504 21.1381 19.9504ZM21.1381 19.5889C21.1665 19.5889 21.1925 19.5943 21.217 19.605C21.242 19.6153 21.2632 19.63 21.2819 19.6486C21.3003 19.6668 21.3147 19.6883 21.3253 19.7133C21.3359 19.7378 21.3412 19.7643 21.3412 19.7922C21.3412 19.8201 21.3359 19.8466 21.3253 19.871C21.3147 19.8956 21.3003 19.9171 21.2819 19.9353C21.2632 19.9539 21.242 19.9686 21.217 19.9793C21.1925 19.9901 21.1665 19.9955 21.1381 19.9955C21.1092 19.9955 21.0828 19.9901 21.0578 19.9793C21.0327 19.9686 21.0111 19.9539 20.9928 19.9353C20.9745 19.9171 20.96 19.8956 20.9495 19.871C20.9389 19.8466 20.9336 19.8201 20.9336 19.7922C20.9336 19.7643 20.9389 19.7378 20.9495 19.7133C20.96 19.6883 20.9745 19.6668 20.9928 19.6486C21.0111 19.63 21.0327 19.6153 21.0578 19.605C21.0828 19.5943 21.1092 19.5889 21.1381 19.5889Z" fill="#231F20"/>
<path d="M17.948 17.788C18.036 17.788 18.1625 17.8051 18.2592 17.8438L18.1245 18.2632C18.0321 18.2245 17.9398 18.2118 17.8512 18.2118C17.5654 18.2118 17.4225 18.3999 17.4225 18.7379V19.8853H16.9852V17.8394H17.4182V18.0878C17.5317 17.9081 17.6958 17.788 17.948 17.788ZM16.3322 18.2461H15.6177V19.1705C15.6177 19.3758 15.6889 19.513 15.9078 19.513C16.0214 19.513 16.1642 19.4743 16.2942 19.3974L16.4202 19.7781C16.2817 19.8765 16.0632 19.9368 15.8741 19.9368C15.3569 19.9368 15.1764 19.6541 15.1764 19.1788V18.2461H14.7684V17.8394H15.1764V17.2188H15.6177V17.8394H16.3322V18.2461ZM10.7367 18.6826C10.7834 18.3871 10.9595 18.1858 11.2708 18.1858C11.5523 18.1858 11.7332 18.3656 11.7794 18.6826H10.7367ZM12.2336 18.8624C12.2293 18.2245 11.8424 17.788 11.279 17.788C10.6905 17.788 10.2786 18.2245 10.2786 18.8624C10.2786 19.5125 10.7074 19.9363 11.3088 19.9363C11.6114 19.9363 11.8886 19.8594 12.1326 19.6497L11.918 19.32C11.7501 19.4571 11.5355 19.5341 11.3339 19.5341C11.0524 19.5341 10.7959 19.4013 10.7329 19.0334H12.2249C12.2293 18.9775 12.2336 18.9221 12.2336 18.8624ZM14.1544 18.3617C14.0327 18.2843 13.7849 18.1858 13.5284 18.1858C13.2888 18.1858 13.1459 18.276 13.1459 18.4259C13.1459 18.5625 13.297 18.6013 13.4861 18.6267L13.692 18.6566C14.1294 18.7213 14.394 18.9094 14.394 19.269C14.394 19.6585 14.0577 19.9368 13.4779 19.9368C13.1498 19.9368 12.8471 19.8511 12.6075 19.6712L12.8134 19.3244C12.9607 19.44 13.1796 19.5384 13.4823 19.5384C13.7805 19.5384 13.9403 19.4488 13.9403 19.2901C13.9403 19.175 13.8267 19.1103 13.5871 19.0764L13.3812 19.0466C12.9313 18.9819 12.6874 18.7767 12.6874 18.443C12.6874 18.0364 13.0155 17.788 13.5241 17.788C13.8436 17.788 14.1337 17.861 14.3436 18.0021L14.1544 18.3617ZM19.5459 18.2108C19.4559 18.2108 19.3727 18.227 19.2952 18.2588C19.2182 18.2911 19.1513 18.3362 19.095 18.3941C19.0387 18.4518 18.9945 18.5214 18.9622 18.6022C18.93 18.6831 18.9141 18.7722 18.9141 18.8692C18.9141 18.9668 18.93 19.0554 18.9622 19.1362C18.9945 19.2171 19.0387 19.2867 19.095 19.3444C19.1513 19.4023 19.2182 19.4474 19.2952 19.4797C19.3727 19.512 19.4559 19.5277 19.5459 19.5277C19.6358 19.5277 19.7195 19.512 19.7966 19.4797C19.874 19.4474 19.9414 19.4023 19.9977 19.3444C20.0549 19.2867 20.0992 19.2171 20.132 19.1362C20.1642 19.0554 20.1801 18.9668 20.1801 18.8692C20.1801 18.7722 20.1642 18.6831 20.132 18.6022C20.0992 18.5214 20.0549 18.4518 19.9977 18.3941C19.9414 18.3362 19.874 18.2911 19.7966 18.2588C19.7195 18.227 19.6358 18.2108 19.5459 18.2108ZM19.5459 17.788C19.7017 17.788 19.8461 17.8154 19.9789 17.8708C20.1117 17.9257 20.2267 18.0016 20.3234 18.0981C20.4206 18.1946 20.4962 18.3088 20.5511 18.4401C20.6059 18.5718 20.6333 18.7149 20.6333 18.8692C20.6333 19.0236 20.6059 19.1666 20.5511 19.2984C20.4962 19.4297 20.4206 19.5444 20.3234 19.6408C20.2267 19.7374 20.1117 19.8128 19.9789 19.8681C19.8461 19.9231 19.7017 19.9504 19.5459 19.9504C19.39 19.9504 19.2456 19.9231 19.1128 19.8681C18.98 19.8128 18.866 19.7374 18.7698 19.6408C18.6736 19.5444 18.598 19.4297 18.5431 19.2984C18.4883 19.1666 18.4608 19.0236 18.4608 18.8692C18.4608 18.7149 18.4883 18.5718 18.5431 18.4401C18.598 18.3088 18.6736 18.1946 18.7698 18.0981C18.866 18.0016 18.98 17.9257 19.1128 17.8708C19.2456 17.8154 19.39 17.788 19.5459 17.788ZM8.18266 18.8624C8.18266 18.5028 8.41417 18.2074 8.79235 18.2074C9.15372 18.2074 9.39766 18.4901 9.39766 18.8624C9.39766 19.2348 9.15372 19.5169 8.79235 19.5169C8.41417 19.5169 8.18266 19.222 8.18266 18.8624ZM9.80955 18.8624V17.8394H9.37258V18.0878C9.23356 17.9036 9.02379 17.788 8.73796 17.788C8.17455 17.788 7.73326 18.2372 7.73326 18.8624C7.73326 19.487 8.17455 19.9368 8.73796 19.9368C9.02379 19.9368 9.23356 19.8211 9.37258 19.6369V19.8853H9.80955V18.8624ZM7.34643 19.8853V18.6013C7.34643 18.1177 7.04378 17.7924 6.55636 17.788C6.2999 17.7836 6.03478 17.8649 5.85 18.152C5.71143 17.9252 5.4925 17.788 5.18552 17.788C4.9714 17.788 4.76113 17.8522 4.59705 18.0917V17.8394H4.16016V19.8853H4.60138V18.7511C4.60138 18.396 4.79482 18.2074 5.09313 18.2074C5.38328 18.2074 5.53051 18.3999 5.53051 18.7467V19.8853H5.97174V18.7511C5.97174 18.396 6.17383 18.2074 6.46349 18.2074C6.76229 18.2074 6.9052 18.3999 6.9052 18.7467V19.8853H7.34643Z" fill="#9A9C9E"/>
<path d="M24.647 8.30742C24.647 12.5633 21.2591 16.0133 17.0797 16.0133C15.3143 16.0133 13.6899 15.3974 12.4023 14.3656C14.1629 12.9547 15.2932 10.7653 15.2932 8.30742C15.2932 5.84952 14.1629 3.66009 12.4023 2.24914C13.6899 1.21739 15.3143 0.601562 17.0797 0.601562C21.2591 0.601562 24.647 4.05153 24.647 8.30742Z" fill="#0099DF"/>
<path d="M9.51789 8.30742C9.51789 5.84952 10.6482 3.66009 12.4083 2.24914C11.1212 1.21739 9.49676 0.601562 7.7313 0.601562C3.55194 0.601562 0.164062 4.05153 0.164062 8.30742C0.164062 12.5633 3.55194 16.0133 7.7313 16.0133C9.49676 16.0133 11.1212 15.3974 12.4083 14.3656C10.6482 12.9547 9.51789 10.7653 9.51789 8.30742Z" fill="#EB001B"/>
</g>
<defs>
<clipPath id="clip0_680_8535">
<rect width="25" height="20" fill="white" transform="translate(0 0.00488281)"/>
</clipPath>
</defs>
</svg>
