<svg width="46" height="21" viewBox="0 0 46 21" fill="none" xmlns="http://www.w3.org/2000/svg">
<path d="M19.9092 17.771H16.1875L18.5153 2.75195H22.2368L19.9092 17.771Z" fill="#00579F"/>
<path d="M33.4003 3.11891C32.6662 2.81503 31.5019 2.47949 30.0622 2.47949C26.387 2.47949 23.7989 4.52454 23.7831 7.44833C23.7525 9.60551 25.636 10.8037 27.0448 11.5229C28.4846 12.2579 28.9741 12.7376 28.9741 13.3928C28.9594 14.399 27.8106 14.8627 26.7391 14.8627C25.2532 14.8627 24.4571 14.6236 23.2472 14.0638L22.7571 13.8238L22.2363 17.1953C23.1093 17.6102 24.7174 17.9785 26.387 17.9946C30.292 17.9946 32.8343 15.9813 32.8644 12.8654C32.8793 11.1558 31.8848 9.84569 29.7405 8.77517C28.4388 8.08797 27.6416 7.62459 27.6416 6.92147C27.657 6.28226 28.3159 5.62755 29.7853 5.62755C30.9952 5.59547 31.8841 5.89894 32.5575 6.20262L32.8941 6.36211L33.4003 3.11891Z" fill="#00579F"/>
<path d="M38.3459 12.4503C38.6524 11.5875 39.8317 8.24809 39.8317 8.24809C39.8163 8.28016 40.1376 7.36933 40.3214 6.81019L40.5815 8.10433C40.5815 8.10433 41.2863 11.6994 41.4393 12.4503C40.8577 12.4503 39.081 12.4503 38.3459 12.4503ZM42.9398 2.75195H40.0611C39.1734 2.75195 38.499 3.02335 38.1159 3.99809L32.5879 17.7708H36.4929C36.4929 17.7708 37.1358 15.9171 37.274 15.5179C37.7024 15.5179 41.5012 15.5179 42.0523 15.5179C42.1591 16.0452 42.4964 17.7708 42.4964 17.7708H45.9422L42.9398 2.75195Z" fill="#00579F"/>
<path d="M13.0791 2.75195L9.43432 12.9936L9.03604 10.9164C8.36222 8.5197 6.24894 5.91572 3.89062 4.62095L7.22906 17.7551H11.1646L17.0144 2.75195H13.0791Z" fill="#00579F"/>
<path d="M6.04903 2.75195H0.0612573L0 3.05541C4.67084 4.30177 7.76426 7.30605 9.03517 10.9171L7.73352 4.01445C7.51921 3.05521 6.86064 2.78359 6.04903 2.75195Z" fill="#FAA61A"/>
</svg>
