<svg width="40" height="40" viewBox="0 0 40 40" fill="none" xmlns="http://www.w3.org/2000/svg">
<path fill-rule="evenodd" clip-rule="evenodd" d="M9.39417 23.2514L3.75 29.0292L8.26389 31.7375L10.9722 36.2514L18.0121 28.8577" fill="#E2195B" fill-opacity="0.1"/>
<path d="M9.39417 23.2514L3.75 29.0292L8.26389 31.7375L10.9722 36.2514L18.0121 28.8577" stroke="#353949" stroke-width="2" stroke-linecap="round" stroke-linejoin="round"/>
<path fill-rule="evenodd" clip-rule="evenodd" d="M21.9863 28.8577L29.0262 36.2514L31.7345 31.7375L36.2484 29.0292L30.6042 23.2514" fill="#E2195B" fill-opacity="0.1"/>
<path d="M21.9863 28.8577L29.0262 36.2514L31.7345 31.7375L36.2484 29.0292L30.6042 23.2514" stroke="#353949" stroke-width="2" stroke-linecap="round" stroke-linejoin="round"/>
<path d="M28.9373 7.45184C33.873 12.3876 33.873 20.3901 28.9373 25.3259C24.0015 30.2617 15.999 30.2617 11.0632 25.3259C6.12738 20.3901 6.12738 12.3876 11.0632 7.45184C15.999 2.51605 24.0015 2.51605 28.9373 7.45184" stroke="#353949" stroke-width="2" stroke-linecap="round" stroke-linejoin="round"/>
<path fill-rule="evenodd" clip-rule="evenodd" d="M19.9996 21.0532L23.2442 22.7577C23.8761 23.0899 24.6146 22.5536 24.4936 21.8495L23.8743 18.2366L26.4996 15.6799C27.0106 15.1816 26.7289 14.3131 26.0229 14.2102L22.3956 13.683L20.7742 10.395C20.4582 9.75406 19.5464 9.75406 19.2304 10.395L17.609 13.683L13.9799 14.212C13.2739 14.3149 12.9922 15.1834 13.5032 15.6817L16.1285 18.2384L15.5092 21.8513C15.3882 22.5555 16.1267 23.0917 16.7586 22.7595L20.0032 21.055H19.9996V21.0532Z" fill="#E2195B" fill-opacity="0.1" stroke="#353949" stroke-width="2" stroke-linecap="round" stroke-linejoin="round"/>
</svg>
