<svg width="40" height="40" viewBox="0 0 40 40" fill="none" xmlns="http://www.w3.org/2000/svg">
<path fill-rule="evenodd" clip-rule="evenodd" d="M21.0112 5.45166L23.4279 4.26999C24.5429 3.72499 25.8912 4.16166 26.4729 5.25999L27.7345 7.63666C28.0679 8.26332 28.6712 8.70166 29.3712 8.82499L32.0212 9.28999C33.2445 9.50499 34.0762 10.65 33.9029 11.88L33.5262 14.5433C33.4262 15.2467 33.6579 15.9567 34.1512 16.4667L36.0212 18.4C36.8845 19.2917 36.8845 20.7083 36.0212 21.6017L34.1512 23.535C33.6579 24.045 33.4262 24.755 33.5262 25.4583L33.9029 28.1217C34.0762 29.3517 33.2445 30.4967 32.0212 30.7117L29.3712 31.1767C28.6712 31.3 28.0679 31.7383 27.7345 32.365L26.4729 34.7417C25.8912 35.8383 24.5445 36.2767 23.4279 35.7317L21.0112 34.55C20.3729 34.2383 19.6279 34.2383 18.9895 34.55L16.5729 35.7317C15.4579 36.2767 14.1095 35.84 13.5279 34.7417L12.2662 32.3633C11.9329 31.7367 11.3295 31.2983 10.6295 31.175L7.97953 30.71C6.7562 30.495 5.92453 29.35 6.09786 28.12L6.47453 25.4567C6.57453 24.7533 6.34286 24.0433 5.84953 23.5333L3.97953 21.6C3.1162 20.7083 3.1162 19.2917 3.97953 18.3983L5.84953 16.465C6.34286 15.955 6.57453 15.245 6.47453 14.5417L6.09953 11.8783C5.92453 10.65 6.75786 9.50332 7.9812 9.28999L10.6312 8.82499C11.3295 8.70166 11.9329 8.26332 12.2662 7.63666L13.5279 5.25999C14.1095 4.16332 15.4562 3.72499 16.5729 4.26999L18.9895 5.45166C19.6262 5.76332 20.3729 5.76332 21.0112 5.45166Z" fill="#E2195B" fill-opacity="0.1" stroke="#353949" stroke-width="2" stroke-linecap="round" stroke-linejoin="round"/>
<path d="M15 25L25 15" stroke="#353949" stroke-width="2" stroke-linecap="round" stroke-linejoin="round"/>
<path d="M15.4157 15C15.1857 15 14.999 15.1866 15.0007 15.4166C15.0007 15.6466 15.1873 15.8333 15.4173 15.8333C15.6473 15.8333 15.834 15.6466 15.834 15.4166C15.834 15.1866 15.6473 15 15.4157 15" stroke="#353949" stroke-width="2" stroke-linecap="round" stroke-linejoin="round"/>
<path d="M24.5817 24.1667C24.3517 24.1667 24.165 24.3533 24.1667 24.5833C24.1667 24.8133 24.3533 25 24.5833 25C24.8133 25 25 24.8133 25 24.5833C25 24.3533 24.8133 24.1667 24.5817 24.1667" stroke="#353949" stroke-width="2" stroke-linecap="round" stroke-linejoin="round"/>
</svg>
