<svg width="32" height="33" viewBox="0 0 32 33" fill="none" xmlns="http://www.w3.org/2000/svg">
<rect y="0.00488281" width="32" height="32" rx="16" fill="#CD1E9C"/>
<path d="M13.334 16.0049C13.334 14.5322 14.5276 13.338 16.0003 13.338C17.4731 13.338 18.6673 14.5322 18.6673 16.0049C18.6673 17.4776 17.4731 18.6718 16.0003 18.6718C14.5276 18.6718 13.334 17.4776 13.334 16.0049ZM11.8923 16.0049C11.8923 18.2737 13.7314 20.1128 16.0003 20.1128C18.2692 20.1128 20.1084 18.2737 20.1084 16.0049C20.1084 13.7361 18.2692 11.897 16.0003 11.897C13.7314 11.897 11.8923 13.7361 11.8923 16.0049ZM19.311 11.7341C19.3109 11.924 19.3671 12.1096 19.4726 12.2675C19.578 12.4254 19.7279 12.5485 19.9033 12.6213C20.0787 12.694 20.2717 12.7131 20.4579 12.6761C20.6442 12.6391 20.8153 12.5478 20.9496 12.4136C21.0839 12.2794 21.1754 12.1084 21.2125 11.9221C21.2497 11.7359 21.2307 11.5429 21.1581 11.3675C21.0855 11.192 20.9625 11.042 20.8047 10.9365C20.6469 10.8309 20.4613 10.7746 20.2714 10.7745H20.271C20.0165 10.7746 19.7724 10.8757 19.5924 11.0557C19.4124 11.2356 19.3112 11.4796 19.311 11.7341ZM12.7682 22.5167C11.9882 22.4812 11.5642 22.3513 11.2825 22.2415C10.909 22.0961 10.6425 21.9229 10.3623 21.6431C10.0821 21.3633 9.90862 21.097 9.76385 20.7235C9.65402 20.4419 9.52409 20.0179 9.48864 19.2379C9.44985 18.3946 9.44211 18.1413 9.44211 16.0049C9.44211 13.8686 9.45049 13.616 9.48864 12.772C9.52416 11.992 9.65504 11.5688 9.76385 11.2864C9.90926 10.9129 10.0825 10.6464 10.3623 10.3662C10.6421 10.086 10.9083 9.91253 11.2825 9.76776C11.5641 9.65794 11.9882 9.52802 12.7682 9.49256C13.6115 9.45378 13.8648 9.44603 16.0003 9.44603C18.1358 9.44603 18.3894 9.45442 19.2334 9.49256C20.0134 9.52808 20.4367 9.65896 20.7191 9.76776C21.0926 9.91253 21.3591 10.0864 21.6393 10.3662C21.9195 10.646 22.0923 10.9129 22.2378 11.2864C22.3476 11.568 22.4775 11.992 22.513 12.772C22.5518 13.616 22.5595 13.8686 22.5595 16.0049C22.5595 18.1413 22.5518 18.3939 22.513 19.2379C22.4774 20.0179 22.3469 20.4418 22.2378 20.7235C22.0923 21.097 21.9192 21.3635 21.6393 21.6431C21.3595 21.9226 21.0926 22.0961 20.7191 22.2415C20.4375 22.3513 20.0134 22.4812 19.2334 22.5167C18.3901 22.5555 18.1368 22.5632 16.0003 22.5632C13.8639 22.5632 13.6112 22.5555 12.7682 22.5167ZM12.7019 8.05333C11.8503 8.09211 11.2683 8.22715 10.76 8.42491C10.2337 8.62914 9.7881 8.90312 9.34284 9.34767C8.89757 9.79221 8.62428 10.2385 8.42005 10.7648C8.22228 11.2734 8.08724 11.855 8.04845 12.7066C8.00902 13.5596 8 13.8323 8 16.0049C8 18.1774 8.00902 18.4501 8.04845 19.3031C8.08724 20.1548 8.22228 20.7364 8.42005 21.2449C8.62428 21.771 8.89764 22.2177 9.34284 22.6621C9.78804 23.1065 10.2337 23.3801 10.76 23.5849C11.2693 23.7826 11.8503 23.9177 12.7019 23.9564C13.5554 23.9952 13.8277 24.0049 16.0003 24.0049C18.173 24.0049 18.4457 23.9959 19.2987 23.9564C20.1504 23.9177 20.732 23.7826 21.2406 23.5849C21.7666 23.3801 22.2125 23.1066 22.6578 22.6621C23.1031 22.2176 23.3758 21.771 23.5806 21.2449C23.7784 20.7364 23.914 20.1548 23.9522 19.3031C23.991 18.4495 24 18.1774 24 16.0049C24 13.8323 23.991 13.5596 23.9522 12.7066C23.9134 11.8549 23.7784 11.273 23.5806 10.7648C23.3758 10.2388 23.1024 9.79291 22.6578 9.34767C22.2132 8.90242 21.7666 8.62914 21.2412 8.42491C20.732 8.22715 20.1504 8.09147 19.2993 8.05333C18.4463 8.01455 18.1736 8.00488 16.001 8.00488C13.8283 8.00488 13.5554 8.01391 12.7019 8.05333Z" fill="white"/>
</svg>
