<svg width="32" height="33" viewBox="0 0 32 33" fill="none" xmlns="http://www.w3.org/2000/svg">
<rect y="0.00488281" width="32" height="32" rx="16" fill="#5181B8"/>
<path fill-rule="evenodd" clip-rule="evenodd" d="M23.6329 11.682C23.7442 11.2917 23.6329 11.0049 23.1035 11.0049H21.3531C20.908 11.0049 20.703 11.2526 20.5917 11.5259C20.5917 11.5259 19.7015 13.8092 18.4404 15.2924C18.0325 15.7217 17.847 15.8582 17.6245 15.8582C17.5132 15.8582 17.3522 15.7217 17.3522 15.3315V11.682C17.3522 11.2136 17.223 11.0049 16.8521 11.0049H14.1014C13.8234 11.0049 13.6561 11.2223 13.6561 11.4283C13.6561 11.8724 14.2865 11.9748 14.3515 13.2237V15.9365C14.3515 16.5312 14.2495 16.6391 14.0269 16.6391C13.4335 16.6391 11.9902 14.3454 11.134 11.7211C10.9662 11.2109 10.7979 11.0049 10.3505 11.0049H8.60014C8.10002 11.0049 8 11.2526 8 11.5259C8 12.0138 8.59351 14.4338 10.7631 17.6344C12.2097 19.8199 14.2475 21.0049 16.1019 21.0049C17.2147 21.0049 17.3522 20.7417 17.3522 20.2884V18.6365C17.3522 18.1101 17.4576 18.0051 17.8098 18.0051C18.0696 18.0051 18.5146 18.1417 19.5532 19.1955C20.74 20.4444 20.9355 21.0049 21.6032 21.0049H23.3536C23.8537 21.0049 24.1038 20.7417 23.9595 20.2224C23.8017 19.7048 23.2351 18.954 22.4831 18.0637C22.0752 17.5562 21.4631 17.0098 21.2779 16.7366C21.0182 16.3853 21.0923 16.2292 21.2779 15.9171C21.2779 15.9171 23.4103 12.7555 23.6329 11.6821V11.682Z" fill="white"/>
</svg>
