<svg width="32" height="33" viewBox="0 0 32 33" fill="none" xmlns="http://www.w3.org/2000/svg">
<rect y="0.00488281" width="32" height="32" rx="16" fill="#FF0000"/>
<path fill-rule="evenodd" clip-rule="evenodd" d="M22.2602 10.746C22.9456 10.9305 23.4859 11.4709 23.6704 12.1562C24.0131 13.4083 23.9999 16.0178 23.9999 16.0178C23.9999 16.0178 23.9999 18.6142 23.6704 19.8662C23.4859 20.5515 22.9456 21.0919 22.2602 21.2764C21.0082 21.6059 16 21.6059 16 21.6059C16 21.6059 11.0049 21.6059 9.7397 21.2632C9.05436 21.0787 8.514 20.5384 8.32949 19.853C8 18.6142 8 16.0046 8 16.0046C8 16.0046 8 13.4083 8.32949 12.1562C8.514 11.4709 9.06754 10.9173 9.7397 10.7328C10.9918 10.4033 16 10.4033 16 10.4033C16 10.4033 21.0082 10.4033 22.2602 10.746ZM18.571 16.0051L14.4062 18.4038V13.6064L18.571 16.0051Z" fill="white"/>
</svg>
