<svg width="40" height="40" viewBox="0 0 40 40" fill="none" xmlns="http://www.w3.org/2000/svg">
<path d="M28.334 34.285C26.954 32.6183 25.144 31.785 23.334 31.785C25.144 31.785 26.954 30.9516 28.334 29.285" stroke="#353949" stroke-width="2" stroke-linecap="round" stroke-linejoin="round"/>
<path d="M16.666 26.5567V36.6667H23.3327V26.555" stroke="#353949" stroke-width="2" stroke-linecap="round" stroke-linejoin="round"/>
<path d="M23.3327 31.7833H16.666" stroke="#353949" stroke-width="2" stroke-linecap="round" stroke-linejoin="round"/>
<path d="M32.4026 17.4283C32.6992 17.2366 32.9842 17.0183 33.2442 16.7583L36.6676 13.3333C35.2576 11.9233 33.3692 11.28 31.5242 11.4066C31.6492 9.56164 31.0076 7.67331 29.5976 6.26331L26.1742 9.68664C24.5426 11.3166 24.2926 13.7833 25.3842 15.6933" stroke="#353949" stroke-width="2" stroke-linecap="round" stroke-linejoin="round"/>
<path fill-rule="evenodd" clip-rule="evenodd" d="M32.6518 20.56L24.3318 26.1067C23.7835 26.4717 23.1401 26.6667 22.4818 26.6667H17.5151C16.8568 26.6667 16.2134 26.4717 15.6668 26.1067L7.34678 20.56C6.52012 20.0084 6.37012 18.8717 6.99012 18.0934C8.30845 16.435 10.3418 15.3667 12.6284 15.3667C13.3268 15.3667 14.0084 15.5067 14.6551 15.6984C15.9818 14.2484 17.8868 13.34 19.9984 13.34C22.1101 13.34 24.0151 14.2484 25.3601 15.6984C26.0068 15.5067 26.6701 15.3667 27.3868 15.3667C29.6584 15.3667 31.6901 16.435 33.0101 18.0934C33.6268 18.8717 33.4785 20.0084 32.6518 20.56V20.56Z" fill="#E2195B" fill-opacity="0.1" stroke="#353949" stroke-width="2" stroke-linecap="round" stroke-linejoin="round"/>
<path d="M23.0001 13.9967C24.2218 13.085 25.0234 11.6417 25.0234 9.99999V5.15833C23.0284 5.15833 21.2401 6.03833 20.0234 7.43333C18.8068 6.03999 17.0184 5.15833 15.0234 5.15833V9.99999C15.0234 11.6317 15.8168 13.0667 17.0268 13.98" stroke="#353949" stroke-width="2" stroke-linecap="round" stroke-linejoin="round"/>
<path d="M7.59898 17.4283C7.30232 17.2366 7.01732 17.0183 6.75732 16.7583L3.33398 13.3333C4.74398 11.9233 6.63232 11.28 8.47732 11.4066C8.35232 9.56164 8.99398 7.67331 10.404 6.26331L13.8273 9.68664C15.459 11.3166 15.709 13.7833 14.6173 15.6933" stroke="#353949" stroke-width="2" stroke-linecap="round" stroke-linejoin="round"/>
</svg>
