<svg width="48" height="49" viewBox="0 0 48 49" fill="none" xmlns="http://www.w3.org/2000/svg">
<path d="M17.1429 11.2875C17.6952 11.2875 18.1429 10.8398 18.1429 10.2875C18.1429 9.73522 17.6952 9.28751 17.1429 9.28751V11.2875ZM30.8572 9.28751C30.3049 9.28751 29.8572 9.73522 29.8572 10.2875C29.8572 10.8398 30.3049 11.2875 30.8572 11.2875V9.28751ZM17.1429 9.2875C16.5906 9.2875 16.1429 9.73522 16.1429 10.2875C16.1429 10.8398 16.5906 11.2875 17.1429 11.2875V9.2875ZM30.8572 11.2875C31.4094 11.2875 31.8572 10.8398 31.8572 10.2875C31.8572 9.73522 31.4094 9.2875 30.8572 9.2875V11.2875ZM18.1429 10.2875C18.1429 9.73522 17.6952 9.28751 17.1429 9.28751C16.5906 9.28751 16.1429 9.73522 16.1429 10.2875H18.1429ZM16.1429 12.5732C16.1429 13.1255 16.5906 13.5732 17.1429 13.5732C17.6952 13.5732 18.1429 13.1255 18.1429 12.5732H16.1429ZM16.1429 10.2875C16.1429 10.8398 16.5906 11.2875 17.1429 11.2875C17.6952 11.2875 18.1429 10.8398 18.1429 10.2875H16.1429ZM18.1429 5.71608C18.1429 5.16379 17.6952 4.71608 17.1429 4.71608C16.5906 4.71608 16.1429 5.16379 16.1429 5.71608H18.1429ZM31.8572 10.2875C31.8572 9.73522 31.4094 9.28751 30.8572 9.28751C30.3049 9.28751 29.8572 9.73522 29.8572 10.2875H31.8572ZM29.8572 12.5732C29.8572 13.1255 30.3049 13.5732 30.8572 13.5732C31.4094 13.5732 31.8572 13.1255 31.8572 12.5732H29.8572ZM29.8572 10.2875C29.8572 10.8398 30.3049 11.2875 30.8572 11.2875C31.4094 11.2875 31.8572 10.8398 31.8572 10.2875H29.8572ZM31.8572 5.71608C31.8572 5.16379 31.4094 4.71608 30.8572 4.71608C30.3049 4.71608 29.8572 5.16379 29.8572 5.71608H31.8572ZM17.1429 9.28751C11.5411 9.28751 7.00002 13.8286 7.00002 19.4304H9.00002C9.00002 14.9332 12.6457 11.2875 17.1429 11.2875V9.28751ZM7.00002 19.4304V33.1446H9.00002V19.4304H7.00002ZM7.00002 33.1446C7.00002 38.7464 11.5411 43.2875 17.1429 43.2875V41.2875C12.6457 41.2875 9.00002 37.6418 9.00002 33.1446H7.00002ZM17.1429 43.2875H30.8572V41.2875H17.1429V43.2875ZM30.8572 43.2875C36.4589 43.2875 41 38.7464 41 33.1446H39C39 37.6418 35.3543 41.2875 30.8572 41.2875V43.2875ZM41 33.1446V19.4304H39V33.1446H41ZM41 19.4304C41 13.8286 36.4589 9.28751 30.8572 9.28751V11.2875C35.3543 11.2875 39 14.9332 39 19.4304H41ZM17.1429 11.2875L30.8572 11.2875V9.2875L17.1429 9.2875V11.2875ZM16.1429 10.2875V12.5732H18.1429V10.2875H16.1429ZM18.1429 10.2875V5.71608H16.1429V10.2875H18.1429ZM29.8572 10.2875V12.5732H31.8572V10.2875H29.8572ZM31.8572 10.2875V5.71608H29.8572V10.2875H31.8572Z" fill="#0093A2"/>
<path d="M14.8574 26.2875L19.4288 33.1446L33.1431 21.7161" stroke="#0093A2" stroke-width="2" stroke-linecap="round" stroke-linejoin="round"/>
</svg>
