<svg width="40" height="40" viewBox="0 0 40 40" fill="none" xmlns="http://www.w3.org/2000/svg">
<path fill-rule="evenodd" clip-rule="evenodd" d="M14.2844 8.57142C10.0765 8.57142 6.66537 11.9826 6.66537 16.1905V27.619C6.66537 31.8269 10.0765 35.2381 14.2844 35.2381H25.713C29.9209 35.2381 33.332 31.8269 33.332 27.619V16.1905C33.332 11.9826 29.9209 8.57142 25.713 8.57142M14.2844 8.57143L25.713 8.57143ZM14.2844 8.57142V10.4762ZM14.2844 8.57142V4.7619ZM25.713 8.57142V10.4762ZM25.713 8.57142V4.7619Z" fill="#E2195B" fill-opacity="0.1"/>
<path d="M14.2844 9.57142C14.8367 9.57142 15.2844 9.12371 15.2844 8.57142C15.2844 8.01914 14.8367 7.57142 14.2844 7.57142V9.57142ZM25.713 7.57142C25.1607 7.57142 24.713 8.01914 24.713 8.57142C24.713 9.12371 25.1607 9.57142 25.713 9.57142V7.57142ZM14.2844 7.57143C13.7321 7.57143 13.2844 8.01914 13.2844 8.57143C13.2844 9.12371 13.7321 9.57143 14.2844 9.57143V7.57143ZM25.713 9.57143C26.2653 9.57143 26.713 9.12371 26.713 8.57143C26.713 8.01914 26.2653 7.57143 25.713 7.57143V9.57143ZM15.2844 8.57142C15.2844 8.01914 14.8367 7.57142 14.2844 7.57142C13.7321 7.57142 13.2844 8.01914 13.2844 8.57142L15.2844 8.57142ZM13.2844 10.4762C13.2844 11.0285 13.7321 11.4762 14.2844 11.4762C14.8367 11.4762 15.2844 11.0285 15.2844 10.4762H13.2844ZM13.2844 8.57142C13.2844 9.12371 13.7321 9.57142 14.2844 9.57142C14.8367 9.57142 15.2844 9.12371 15.2844 8.57142L13.2844 8.57142ZM15.2844 4.7619C15.2844 4.20962 14.8367 3.7619 14.2844 3.7619C13.7321 3.7619 13.2844 4.20962 13.2844 4.7619H15.2844ZM26.713 8.57142C26.713 8.01914 26.2653 7.57142 25.713 7.57142C25.1607 7.57142 24.713 8.01914 24.713 8.57142H26.713ZM24.713 10.4762C24.713 11.0285 25.1607 11.4762 25.713 11.4762C26.2653 11.4762 26.713 11.0285 26.713 10.4762H24.713ZM24.713 8.57142C24.713 9.12371 25.1607 9.57142 25.713 9.57142C26.2653 9.57142 26.713 9.12371 26.713 8.57142H24.713ZM26.713 4.7619C26.713 4.20962 26.2653 3.7619 25.713 3.7619C25.1607 3.7619 24.713 4.20962 24.713 4.7619L26.713 4.7619ZM14.2844 7.57142C9.52425 7.57142 5.66537 11.4303 5.66537 16.1905H7.66537C7.66537 12.5349 10.6288 9.57142 14.2844 9.57142V7.57142ZM5.66537 16.1905V27.619H7.66537V16.1905H5.66537ZM5.66537 27.619C5.66537 32.3792 9.52425 36.2381 14.2844 36.2381V34.2381C10.6288 34.2381 7.66537 31.2746 7.66537 27.619H5.66537ZM14.2844 36.2381H25.713V34.2381H14.2844V36.2381ZM25.713 36.2381C30.4732 36.2381 34.332 32.3792 34.332 27.619H32.332C32.332 31.2746 29.3686 34.2381 25.713 34.2381V36.2381ZM34.332 27.619V16.1905H32.332V27.619H34.332ZM34.332 16.1905C34.332 11.4303 30.4732 7.57142 25.713 7.57142V9.57142C29.3686 9.57142 32.332 12.5349 32.332 16.1905H34.332ZM14.2844 9.57143H25.713V7.57143L14.2844 7.57143V9.57143ZM13.2844 8.57142V10.4762H15.2844V8.57142L13.2844 8.57142ZM15.2844 8.57142V4.7619H13.2844V8.57142L15.2844 8.57142ZM24.713 8.57142V10.4762H26.713V8.57142H24.713ZM26.713 8.57142V4.7619L24.713 4.7619V8.57142H26.713Z" fill="#353949"/>
<path d="M12.3809 21.9047L16.1904 27.619L27.619 18.0952" stroke="#353949" stroke-width="2" stroke-linecap="round" stroke-linejoin="round"/>
</svg>
