<svg width="48" height="49" viewBox="0 0 48 49" fill="none" xmlns="http://www.w3.org/2000/svg">
<path fill-rule="evenodd" clip-rule="evenodd" d="M25.213 6.54362L28.113 5.12562C29.451 4.47162 31.069 4.99563 31.767 6.31362L33.281 9.16563C33.681 9.91763 34.405 10.4436 35.245 10.5916L38.425 11.1496C39.893 11.4076 40.891 12.7816 40.683 14.2576L40.231 17.4536C40.111 18.2976 40.389 19.1496 40.981 19.7616L43.225 22.0816C44.261 23.1516 44.261 24.8516 43.225 25.9236L40.981 28.2436C40.389 28.8556 40.111 29.7076 40.231 30.5516L40.683 33.7476C40.891 35.2236 39.893 36.5976 38.425 36.8556L35.245 37.4136C34.405 37.5616 33.681 38.0876 33.281 38.8396L31.767 41.6916C31.069 43.0076 29.453 43.5336 28.113 42.8796L25.213 41.4616C24.447 41.0876 23.553 41.0876 22.787 41.4616L19.887 42.8796C18.549 43.5336 16.931 43.0096 16.233 41.6916L14.719 38.8376C14.319 38.0856 13.595 37.5596 12.755 37.4116L9.57505 36.8536C8.10705 36.5956 7.10905 35.2216 7.31705 33.7456L7.76905 30.5496C7.88905 29.7056 7.61105 28.8536 7.01905 28.2416L4.77505 25.9216C3.73905 24.8516 3.73905 23.1516 4.77505 22.0796L7.01905 19.7596C7.61105 19.1476 7.88905 18.2956 7.76905 17.4516L7.31905 14.2556C7.10905 12.7816 8.10905 11.4056 9.57705 11.1496L12.757 10.5916C13.595 10.4436 14.319 9.91763 14.719 9.16563L16.233 6.31362C16.931 4.99762 18.547 4.47162 19.887 5.12562L22.787 6.54362C23.551 6.91763 24.447 6.91763 25.213 6.54362Z" stroke="#0093A2" stroke-width="2" stroke-linecap="round" stroke-linejoin="round"/>
<path d="M18 30.0017L30 18.0017" stroke="#0093A2" stroke-width="2" stroke-linecap="round" stroke-linejoin="round"/>
<path d="M18.498 18.0017C18.222 18.0017 17.998 18.2257 18 18.5017C18 18.7777 18.224 19.0017 18.5 19.0017C18.776 19.0017 19 18.7777 19 18.5017C19 18.2257 18.776 18.0017 18.498 18.0017" stroke="#0093A2" stroke-width="2" stroke-linecap="round" stroke-linejoin="round"/>
<path d="M29.498 29.0017C29.222 29.0017 28.998 29.2257 29 29.5017C29 29.7777 29.224 30.0017 29.5 30.0017C29.776 30.0017 30 29.7777 30 29.5017C30 29.2257 29.776 29.0017 29.498 29.0017" stroke="#0093A2" stroke-width="2" stroke-linecap="round" stroke-linejoin="round"/>
</svg>
