<svg width="32" height="32" viewBox="0 0 32 32" fill="none" xmlns="http://www.w3.org/2000/svg">
<rect width="32" height="32" rx="16" fill="#262626"/>
<rect width="32" height="32" rx="16" fill="url(#paint0_linear_686_7272)"/>
<path d="M12.6675 16C12.6675 14.1591 14.1594 12.6664 16.0004 12.6664C17.8414 12.6664 19.3341 14.1591 19.3341 16C19.3341 17.8409 17.8414 19.3336 16.0004 19.3336C14.1594 19.3336 12.6675 17.8409 12.6675 16ZM10.8653 16C10.8653 18.836 13.1643 21.1349 16.0004 21.1349C18.8365 21.1349 21.1355 18.836 21.1355 16C21.1355 13.164 18.8365 10.8651 16.0004 10.8651C13.1643 10.8651 10.8653 13.164 10.8653 16ZM20.1387 10.6615C20.1386 10.8989 20.2089 11.1309 20.3407 11.3283C20.4725 11.5257 20.6598 11.6796 20.8791 11.7705C21.0983 11.8614 21.3396 11.8852 21.5724 11.839C21.8052 11.7928 22.0191 11.6786 22.187 11.5109C22.3549 11.3431 22.4693 11.1293 22.5157 10.8966C22.5621 10.6638 22.5384 10.4225 22.4477 10.2032C22.3569 9.98392 22.2032 9.79644 22.0059 9.6645C21.8086 9.53257 21.5766 9.4621 21.3393 9.462H21.3388C21.0206 9.46215 20.7156 9.58856 20.4905 9.81347C20.2655 10.0384 20.139 10.3434 20.1387 10.6615ZM11.9602 24.1398C10.9852 24.0954 10.4553 23.933 10.1031 23.7958C9.63623 23.614 9.30309 23.3975 8.95284 23.0478C8.60258 22.698 8.38578 22.3652 8.20481 21.8983C8.06752 21.5463 7.90512 21.0162 7.86079 20.0413C7.81231 18.9872 7.80263 18.6706 7.80263 16.0001C7.80263 13.3296 7.81311 13.0138 7.86079 11.9589C7.9052 10.9839 8.0688 10.4549 8.20481 10.1018C8.38658 9.63496 8.60306 9.30184 8.95284 8.9516C9.30261 8.60136 9.63543 8.38456 10.1031 8.2036C10.4551 8.06632 10.9852 7.90392 11.9602 7.8596C13.0144 7.81112 13.331 7.80144 16.0004 7.80144C18.6698 7.80144 18.9868 7.81192 20.0418 7.8596C21.0168 7.904 21.5458 8.0676 21.8989 8.2036C22.3658 8.38456 22.6989 8.60184 23.0492 8.9516C23.3994 9.30136 23.6154 9.63496 23.7972 10.1018C23.9345 10.4538 24.0969 10.9839 24.1412 11.9589C24.1897 13.0138 24.1994 13.3296 24.1994 16.0001C24.1994 18.6706 24.1897 18.9863 24.1412 20.0413C24.0968 21.0162 23.9336 21.5462 23.7972 21.8983C23.6154 22.3652 23.3989 22.6983 23.0492 23.0478C22.6994 23.3972 22.3658 23.614 21.8989 23.7958C21.5469 23.933 21.0168 24.0954 20.0418 24.1398C18.9876 24.1882 18.671 24.1979 16.0004 24.1979C13.3298 24.1979 13.014 24.1882 11.9602 24.1398ZM11.8774 6.06056C10.8128 6.10904 10.0854 6.27784 9.45006 6.52504C8.79211 6.78032 8.23513 7.1228 7.67855 7.67848C7.12196 8.23416 6.78035 8.792 6.52506 9.44992C6.27785 10.0856 6.10904 10.8126 6.06056 11.8772C6.01128 12.9434 6 13.2843 6 16C6 18.7157 6.01128 19.0566 6.06056 20.1228C6.10904 21.1874 6.27785 21.9144 6.52506 22.5501C6.78035 23.2076 7.12205 23.7661 7.67855 24.3215C8.23505 24.877 8.79211 25.219 9.45006 25.475C10.0866 25.7222 10.8128 25.891 11.8774 25.9394C12.9443 25.9879 13.2846 26 16.0004 26C18.7162 26 19.0571 25.9887 20.1234 25.9394C21.188 25.891 21.915 25.7222 22.5507 25.475C23.2083 25.219 23.7657 24.8772 24.3223 24.3215C24.8788 23.7658 25.2197 23.2076 25.4757 22.5501C25.723 21.9144 25.8926 21.1874 25.9402 20.1228C25.9887 19.0558 26 18.7157 26 16C26 13.2843 25.9887 12.9434 25.9402 11.8772C25.8918 10.8126 25.723 10.0852 25.4757 9.44992C25.2197 8.7924 24.878 8.23504 24.3223 7.67848C23.7666 7.12192 23.2083 6.78032 22.5515 6.52504C21.915 6.27784 21.188 6.10824 20.1242 6.06056C19.0579 6.01208 18.717 6 16.0012 6C13.2854 6 12.9443 6.01128 11.8774 6.06056Z" fill="white"/>
<defs>
<linearGradient id="paint0_linear_686_7272" x1="16" y1="0" x2="16" y2="32" gradientUnits="userSpaceOnUse">
<stop stop-color="#9204E9"/>
<stop offset="0.463542" stop-color="#E10C72"/>
<stop offset="1" stop-color="#FDE615"/>
</linearGradient>
</defs>
</svg>
