<svg width="32" height="32" viewBox="0 0 32 32" fill="none" xmlns="http://www.w3.org/2000/svg">
<rect width="32" height="32" rx="16" fill="#0DC143"/>
<path d="M23.2561 9.77297C21.4959 7.97568 19.0627 7 16.5777 7C11.297 7 7.05177 11.2622 7.10354 16.4486C7.10354 18.0919 7.56948 19.6838 8.34605 21.1216L7 26L12.0218 24.7162C13.4196 25.4865 14.9728 25.8459 16.5259 25.8459C21.7548 25.8459 26 21.5838 26 16.3973C26 13.8811 25.0163 11.5189 23.2561 9.77297ZM16.5777 24.2541C15.1798 24.2541 13.782 23.8946 12.5913 23.1757L12.2807 23.0216L9.27793 23.7919L10.0545 20.8649L9.84741 20.5568C7.56948 16.9108 8.65668 12.0838 12.3842 9.82432C16.1117 7.56486 20.9264 8.64324 23.2044 12.3405C25.4823 16.0378 24.3951 20.8135 20.6676 23.073C19.4768 23.8432 18.0272 24.2541 16.5777 24.2541ZM21.1335 18.5541L20.564 18.2973C20.564 18.2973 19.7357 17.9378 19.218 17.6811C19.1662 17.6811 19.1144 17.6297 19.0627 17.6297C18.9074 17.6297 18.8038 17.6811 18.7003 17.7324C18.7003 17.7324 18.6485 17.7838 17.9237 18.6054C17.8719 18.7081 17.7684 18.7595 17.6649 18.7595H17.6131C17.5613 18.7595 17.4578 18.7081 17.406 18.6568L17.1471 18.5541C16.5777 18.2973 16.0599 17.9892 15.6458 17.5784C15.5422 17.4757 15.3869 17.373 15.2834 17.2703C14.921 16.9108 14.5586 16.5 14.2997 16.0378L14.248 15.9351C14.1962 15.8838 14.1962 15.8324 14.1444 15.7297C14.1444 15.627 14.1444 15.5243 14.1962 15.473C14.1962 15.473 14.4033 15.2162 14.5586 15.0622C14.6621 14.9595 14.7139 14.8054 14.8174 14.7027C14.921 14.5486 14.9728 14.3432 14.921 14.1892C14.8692 13.9324 14.248 12.5459 14.0926 12.2378C13.9891 12.0838 13.8856 12.0324 13.7302 11.9811H13.5749C13.4714 11.9811 13.3161 11.9811 13.1608 11.9811C13.0572 11.9811 12.9537 12.0324 12.8501 12.0324L12.7984 12.0838C12.6948 12.1351 12.5913 12.2378 12.4877 12.2892C12.3842 12.3919 12.3324 12.4946 12.2289 12.5973C11.8665 13.0595 11.6594 13.6243 11.6594 14.1892C11.6594 14.6 11.7629 15.0108 11.9183 15.3703L11.97 15.5243C12.436 16.5 13.0572 17.373 13.8856 18.1432L14.0926 18.3486C14.248 18.5027 14.4033 18.6054 14.5068 18.7595C15.594 19.6838 16.8365 20.3514 18.2343 20.7108C18.3896 20.7622 18.5967 20.7622 18.752 20.8135C18.9074 20.8135 19.1144 20.8135 19.2698 20.8135C19.5286 20.8135 19.8392 20.7108 20.0463 20.6081C20.2016 20.5054 20.3052 20.5054 20.4087 20.4027L20.5123 20.3C20.6158 20.1973 20.7193 20.1459 20.8229 20.0432C20.9264 19.9405 21.03 19.8378 21.0817 19.7351C21.1853 19.5297 21.2371 19.273 21.2888 19.0162C21.2888 18.9135 21.2888 18.7595 21.2888 18.6568C21.2888 18.6568 21.2371 18.6054 21.1335 18.5541Z" fill="white"/>
</svg>
