<svg width="16" height="10" viewBox="0 0 16 10" fill="none" xmlns="http://www.w3.org/2000/svg">
<path d="M9.75 2.0251H10.5C10.5 2.01035 10.4996 1.9956 10.4987 1.98087L9.75 2.0251ZM10.2847 1.10156L9.95032 0.43023L10.2847 1.10156ZM11.344 1.2311L11.8446 0.672592C11.8399 0.668385 11.8351 0.664237 11.8303 0.66015L11.344 1.2311ZM14.65 4.1941L15.1569 3.64131L15.1506 3.63559L14.65 4.1941ZM14.65 5.7831L15.1507 6.34157L15.1569 6.33586L14.65 5.7831ZM11.344 8.7471L11.8303 9.31806C11.8352 9.31394 11.8399 9.30977 11.8447 9.30553L11.344 8.7471ZM10.2847 8.87665L10.6191 8.20533L10.6191 8.20533L10.2847 8.87665ZM9.75 7.9531L10.4987 7.99734C10.4996 7.98261 10.5 7.96786 10.5 7.9531H9.75ZM9.75 5.7391C10.1642 5.7391 10.5 5.40332 10.5 4.9891C10.5 4.57489 10.1642 4.2391 9.75 4.2391V5.7391ZM1 4.2391C0.585786 4.2391 0.25 4.57489 0.25 4.9891C0.25 5.40332 0.585786 5.7391 1 5.7391V4.2391ZM10.5 4.9891V2.0251H9V4.9891H10.5ZM10.4987 1.98087C10.4935 1.89368 10.5409 1.81182 10.6191 1.77288L9.95032 0.43023C9.33418 0.737141 8.96071 1.38219 9.00131 2.06934L10.4987 1.98087ZM10.6191 1.77288C10.6973 1.73394 10.7912 1.74542 10.8577 1.80206L11.8303 0.66015C11.3063 0.213801 10.5665 0.123319 9.95032 0.43023L10.6191 1.77288ZM10.8434 1.78961L14.1494 4.75261L15.1506 3.63559L11.8446 0.672592L10.8434 1.78961ZM14.1431 4.74686C14.2108 4.80899 14.2494 4.89669 14.2494 4.9886H15.7494C15.7494 4.47634 15.5345 3.98757 15.1569 3.64134L14.1431 4.74686ZM14.2494 4.9886C14.2494 5.08052 14.2108 5.16822 14.1431 5.23034L15.1569 6.33586C15.5345 5.98963 15.7494 5.50087 15.7494 4.9886H14.2494ZM14.1493 5.22468L10.8433 8.18868L11.8447 9.30553L15.1507 6.34153L14.1493 5.22468ZM10.8577 8.17615C10.7912 8.23279 10.6973 8.24427 10.6191 8.20533L9.95032 9.54797C10.5665 9.85489 11.3063 9.7644 11.8303 9.31806L10.8577 8.17615ZM10.6191 8.20533C10.5409 8.16638 10.4935 8.08453 10.4987 7.99734L9.00131 7.90887C8.96071 8.59602 9.33418 9.24106 9.95032 9.54798L10.6191 8.20533ZM10.5 7.9531V4.9891H9V7.9531H10.5ZM9.75 4.2391H1V5.7391H9.75V4.2391Z" fill="#353949"/>
</svg>
