<svg width="22" height="14" viewBox="0 0 22 14" fill="none" xmlns="http://www.w3.org/2000/svg">
<path fill-rule="evenodd" clip-rule="evenodd" d="M10.6668 11.0302C10.6467 12.0055 9.84326 12.7818 8.86787 12.7684C7.89247 12.755 7.11065 11.9571 7.11723 10.9816C7.12381 10.0061 7.91632 9.21878 8.89181 9.21857C9.36744 9.2234 9.82166 9.417 10.1545 9.75676C10.4874 10.0965 10.6717 10.5546 10.6668 11.0302V11.0302Z" stroke="#0093A2" stroke-width="1.5" stroke-linecap="round" stroke-linejoin="round"/>
<path fill-rule="evenodd" clip-rule="evenodd" d="M19.1199 11.0302C19.0998 12.0055 18.2964 12.7818 17.321 12.7684C16.3456 12.755 15.5638 11.9571 15.5704 10.9816C15.5769 10.0061 16.3694 9.21878 17.3449 9.21857C17.8206 9.2234 18.2748 9.417 18.6077 9.75676C18.9406 10.0965 19.1248 10.5546 19.1199 11.0302V11.0302Z" stroke="#0093A2" stroke-width="1.5" stroke-linecap="round" stroke-linejoin="round"/>
<path d="M15.3617 11.7802C15.7759 11.7802 16.1117 11.4444 16.1117 11.0302C16.1117 10.616 15.7759 10.2802 15.3617 10.2802V11.7802ZM10.6667 10.2802C10.2525 10.2802 9.91667 10.616 9.91667 11.0302C9.91667 11.4444 10.2525 11.7802 10.6667 11.7802V10.2802ZM14.615 11.0302C14.615 11.4444 14.9508 11.7802 15.365 11.7802C15.7792 11.7802 16.115 11.4444 16.115 11.0302H14.615ZM16.115 6.64107C16.115 6.22685 15.7792 5.89107 15.365 5.89107C14.9508 5.89107 14.615 6.22685 14.615 6.64107H16.115ZM15.365 10.2802C14.9508 10.2802 14.615 10.616 14.615 11.0302C14.615 11.4444 14.9508 11.7802 15.365 11.7802V10.2802ZM15.5742 11.7802C15.9884 11.7802 16.3242 11.4444 16.3242 11.0302C16.3242 10.616 15.9884 10.2802 15.5742 10.2802V11.7802ZM19.1083 10.2804C18.6942 10.2892 18.3656 10.632 18.3743 11.0461C18.3831 11.4602 18.7259 11.7888 19.14 11.7801L19.1083 10.2804ZM21 9.0794L21.7499 9.06586C21.7492 9.02622 21.7453 8.98671 21.7383 8.94768L21 9.0794ZM21.3033 6.50934C21.2306 6.10157 20.8411 5.82998 20.4333 5.90272C20.0255 5.97547 19.7539 6.36501 19.8267 6.77279L21.3033 6.50934ZM15.3617 1.9894C14.9475 1.9894 14.6117 2.32519 14.6117 2.7394C14.6117 3.15361 14.9475 3.4894 15.3617 3.4894V1.9894ZM18.3375 2.7394L18.3375 3.48941L18.3422 3.48938L18.3375 2.7394ZM19.6955 3.31179L19.1553 3.8321L19.1553 3.8321L19.6955 3.31179ZM20.2167 4.69023L19.4674 4.65745C19.465 4.71256 19.4686 4.76776 19.4783 4.82206L20.2167 4.69023ZM19.8267 6.7729C19.8995 7.18066 20.2891 7.4522 20.6968 7.37939C21.1046 7.30658 21.3761 6.917 21.3033 6.50923L19.8267 6.7729ZM16.1117 2.7394C16.1117 2.32519 15.7759 1.9894 15.3617 1.9894C14.9475 1.9894 14.6117 2.32519 14.6117 2.7394H16.1117ZM14.6117 6.64107C14.6117 7.05528 14.9475 7.39107 15.3617 7.39107C15.7759 7.39107 16.1117 7.05528 16.1117 6.64107H14.6117ZM14.6117 2.7394C14.6117 3.15361 14.9475 3.4894 15.3617 3.4894C15.7759 3.4894 16.1117 3.15361 16.1117 2.7394H14.6117ZM15.3617 2.07273L14.6117 2.06781V2.07273H15.3617ZM14.475 1.17523L14.4792 0.425232H14.475V1.17523ZM6.4875 1.17523L6.4875 0.425224L6.484 0.42524L6.4875 1.17523ZM5.85821 1.43934L5.32541 0.911492L5.32541 0.911492L5.85821 1.43934ZM5.6 2.07107L6.35001 2.07107L6.34999 2.06755L5.6 2.07107ZM5.6 10.1336L6.35 10.1371V10.1336H5.6ZM5.85821 10.7653L5.32541 11.2931L5.32541 11.2931L5.85821 10.7653ZM6.4875 11.0294L6.484 11.7794H6.4875V11.0294ZM7.11333 11.7794C7.52755 11.7794 7.86333 11.4436 7.86333 11.0294C7.86333 10.6152 7.52755 10.2794 7.11333 10.2794V11.7794ZM15.3633 5.89023C14.9491 5.89023 14.6133 6.22602 14.6133 6.64023C14.6133 7.05445 14.9491 7.39023 15.3633 7.39023V5.89023ZM20.5667 7.39023C20.9809 7.39023 21.3167 7.05445 21.3167 6.64023C21.3167 6.22602 20.9809 5.89023 20.5667 5.89023V7.39023ZM1 2.0919C0.585786 2.0919 0.25 2.42769 0.25 2.8419C0.25 3.25611 0.585786 3.5919 1 3.5919V2.0919ZM3.60833 3.5919C4.02255 3.5919 4.35833 3.25611 4.35833 2.8419C4.35833 2.42769 4.02255 2.0919 3.60833 2.0919V3.5919ZM1.83333 4.5919C1.41912 4.5919 1.08333 4.92769 1.08333 5.3419C1.08333 5.75611 1.41912 6.0919 1.83333 6.0919V4.5919ZM3.5 6.0919C3.91421 6.0919 4.25 5.75611 4.25 5.3419C4.25 4.92769 3.91421 4.5919 3.5 4.5919V6.0919ZM2.34167 7.0919C1.92745 7.0919 1.59167 7.42769 1.59167 7.8419C1.59167 8.25611 1.92745 8.5919 2.34167 8.5919V7.0919ZM3.5 8.5919C3.91421 8.5919 4.25 8.25611 4.25 7.8419C4.25 7.42769 3.91421 7.0919 3.5 7.0919V8.5919ZM15.3617 10.2802H10.6667V11.7802H15.3617V10.2802ZM16.115 11.0302V6.64107H14.615V11.0302H16.115ZM15.365 11.7802H15.5742V10.2802H15.365V11.7802ZM19.14 11.7801C20.6092 11.749 21.7764 10.5352 21.7499 9.06586L20.2501 9.09294C20.2617 9.73575 19.7511 10.2668 19.1083 10.2804L19.14 11.7801ZM21.7383 8.94768L21.3033 6.50934L19.8267 6.77279L20.2617 9.21112L21.7383 8.94768ZM15.3617 3.4894H18.3375V1.9894H15.3617V3.4894ZM18.3422 3.48938C18.6488 3.48745 18.9427 3.61133 19.1553 3.8321L20.2356 2.79147C19.738 2.27481 19.0501 1.98489 18.3328 1.98941L18.3422 3.48938ZM19.1553 3.8321C19.368 4.05287 19.4808 4.35121 19.4674 4.65745L20.9659 4.72302C20.9973 4.00632 20.7333 3.30814 20.2356 2.79147L19.1553 3.8321ZM19.4783 4.82206L19.8267 6.7729L21.3033 6.50923L20.955 4.5584L19.4783 4.82206ZM14.6117 2.7394V6.64107H16.1117V2.7394H14.6117ZM16.1117 2.7394V2.07273H14.6117V2.7394H16.1117ZM16.1117 2.07765C16.1145 1.64199 15.9441 1.22305 15.6379 0.913121L14.5708 1.96732C14.5972 1.99407 14.6119 2.03022 14.6117 2.06781L16.1117 2.07765ZM15.6379 0.913121C15.3317 0.603189 14.9149 0.427677 14.4792 0.425244L14.4708 1.92522C14.5084 1.92543 14.5444 1.94058 14.5708 1.96732L15.6379 0.913121ZM14.475 0.425232H6.4875V1.92523H14.475V0.425232ZM6.484 0.42524C6.0486 0.42727 5.63185 0.60218 5.32541 0.911492L6.39102 1.96718C6.41746 1.94049 6.45342 1.9254 6.491 1.92522L6.484 0.42524ZM5.32541 0.911492C5.01898 1.2208 4.84797 1.63918 4.85001 2.07458L6.34999 2.06755C6.34982 2.02998 6.36457 1.99388 6.39102 1.96718L5.32541 0.911492ZM4.85 2.07107V10.1336H6.35V2.07107H4.85ZM4.85001 10.1301C4.84797 10.5655 5.01898 10.9838 5.32541 11.2931L6.39102 10.2374C6.36457 10.2108 6.34982 10.1747 6.34999 10.1371L4.85001 10.1301ZM5.32541 11.2931C5.63185 11.6024 6.0486 11.7774 6.484 11.7794L6.491 10.2794C6.45342 10.2792 6.41746 10.2641 6.39102 10.2374L5.32541 11.2931ZM6.4875 11.7794H7.11333V10.2794H6.4875V11.7794ZM15.3633 7.39023H20.5667V5.89023H15.3633V7.39023ZM1 3.5919H3.60833V2.0919H1V3.5919ZM1.83333 6.0919H3.5V4.5919H1.83333V6.0919ZM2.34167 8.5919H3.5V7.0919H2.34167V8.5919Z" fill="#0093A2"/>
</svg>
