<svg width="10" height="10" viewBox="0 0 10 10" fill="none" xmlns="http://www.w3.org/2000/svg">
<path d="M0.960862 7.62622C0.570338 8.01675 0.570338 8.64991 0.960862 9.04044C1.35139 9.43096 1.98455 9.43096 2.37508 9.04044L0.960862 7.62622ZM5.70841 5.7071C6.09893 5.31658 6.09893 4.68342 5.70841 4.29289C5.31788 3.90237 4.68472 3.90237 4.2942 4.29289L5.70841 5.7071ZM4.2942 4.29289C3.90367 4.68342 3.90367 5.31658 4.2942 5.7071C4.68472 6.09763 5.31788 6.09763 5.70841 5.7071L4.2942 4.29289ZM9.04174 2.37377C9.43227 1.98325 9.43227 1.35008 9.04174 0.959557C8.65122 0.569033 8.01805 0.569033 7.62753 0.959557L9.04174 2.37377ZM5.70841 4.29289C5.31788 3.90237 4.68472 3.90237 4.2942 4.29289C3.90367 4.68342 3.90367 5.31658 4.2942 5.7071L5.70841 4.29289ZM7.62753 9.04044C8.01805 9.43096 8.65122 9.43096 9.04174 9.04044C9.43227 8.64991 9.43227 8.01675 9.04174 7.62622L7.62753 9.04044ZM4.2942 5.7071C4.68472 6.09763 5.31788 6.09763 5.70841 5.7071C6.09893 5.31658 6.09893 4.68342 5.70841 4.29289L4.2942 5.7071ZM2.37508 0.959557C1.98455 0.569033 1.35139 0.569033 0.960862 0.959557C0.570338 1.35008 0.570338 1.98325 0.960862 2.37377L2.37508 0.959557ZM2.37508 9.04044L5.70841 5.7071L4.2942 4.29289L0.960862 7.62622L2.37508 9.04044ZM5.70841 5.7071L9.04174 2.37377L7.62753 0.959557L4.2942 4.29289L5.70841 5.7071ZM4.2942 5.7071L7.62753 9.04044L9.04174 7.62622L5.70841 4.29289L4.2942 5.7071ZM5.70841 4.29289L2.37508 0.959557L0.960862 2.37377L4.2942 5.7071L5.70841 4.29289Z" fill="#E2E4EB"/>
</svg>
