<svg width="40" height="52" viewBox="0 0 40 52" fill="none" xmlns="http://www.w3.org/2000/svg">
<path d="M20.5783 49.8737C23.7291 47.3576 38.6661 34.6743 38.6661 20.3506C38.6661 10.0411 30.3086 1.68359 19.9991 1.68359C9.68955 1.68359 1.33203 10.0411 1.33203 20.3506C1.33203 34.6743 16.269 47.3576 19.4199 49.8737C19.7665 50.1505 20.2317 50.1505 20.5783 49.8737Z" fill="#E2195B"/>
<path d="M20.5783 49.8737L19.9543 49.0923L19.9543 49.0923L20.5783 49.8737ZM19.4199 49.8737L20.0439 49.0923L20.0439 49.0923L19.4199 49.8737ZM37.6661 20.3506C37.6661 27.1806 34.0933 33.7133 30.0162 38.9238C25.9553 44.1138 21.4995 47.8584 19.9543 49.0923L21.2023 50.6552C22.8079 49.373 27.3961 45.5179 31.5913 40.1563C35.7705 34.8152 39.6661 27.8444 39.6661 20.3506H37.6661ZM20.0439 49.0923C18.4987 47.8584 14.0429 44.1138 9.98195 38.9238C5.90491 33.7133 2.33203 27.1806 2.33203 20.3506H0.332031C0.332031 27.8444 4.22765 34.8152 8.40683 40.1563C12.6021 45.5179 17.1903 49.373 18.7959 50.6552L20.0439 49.0923ZM2.33203 20.3506C2.33203 10.5934 10.2418 2.68359 19.9991 2.68359V0.683594C9.13727 0.683594 0.332031 9.48883 0.332031 20.3506H2.33203ZM19.9991 2.68359C29.7563 2.68359 37.6661 10.5934 37.6661 20.3506H39.6661C39.6661 9.48883 30.8609 0.683594 19.9991 0.683594V2.68359ZM19.9543 49.0923C19.9533 49.0931 19.9571 49.0899 19.9662 49.0867C19.9752 49.0835 19.9865 49.0813 19.9991 49.0813C20.0117 49.0813 20.023 49.0835 20.0319 49.0867C20.041 49.0899 20.0448 49.0931 20.0439 49.0923L18.7959 50.6552C19.5074 51.2233 20.4908 51.2233 21.2023 50.6552L19.9543 49.0923Z" fill="#E2195B"/>
<path d="M19.9992 26.9003C24.2218 26.9003 27.6449 23.4772 27.6449 19.2546C27.6449 15.032 24.2218 11.6089 19.9992 11.6089C15.7766 11.6089 12.3535 15.032 12.3535 19.2546C12.3535 23.4772 15.7766 26.9003 19.9992 26.9003Z" fill="white"/>
</svg>
