<svg width="16" height="16" viewBox="0 0 16 16" fill="none" xmlns="http://www.w3.org/2000/svg">
<path fill-rule="evenodd" clip-rule="evenodd" d="M9.849 4.52013L8 1.00513L6.151 4.52013C6.02038 4.77699 5.83131 4.99962 5.599 5.17013C5.36556 5.34151 5.09543 5.4562 4.81 5.50513L1 6.25213L3.66 9.43313C4.02377 9.83181 4.19542 10.3694 4.13 10.9051L3.624 15.0051L7.132 13.3051C7.40262 13.1741 7.69931 13.1057 8 13.1051C8.28212 13.106 8.5599 13.1746 8.81 13.3051L12.4 14.9001L11.894 10.8491C11.83 10.3146 12.002 9.77868 12.365 9.38113L15 6.25213L11.19 5.50513C10.9042 5.45635 10.6337 5.34165 10.4 5.17013C10.1681 4.9995 9.97934 4.77688 9.849 4.52013Z" fill="white" stroke="#FFA500" stroke-width="1.5" stroke-linecap="round" stroke-linejoin="round"/>
</svg>
