<svg width="16" height="12" viewBox="0 0 16 12" fill="none" xmlns="http://www.w3.org/2000/svg">
<path fill-rule="evenodd" clip-rule="evenodd" d="M14.2602 0.342667C14.9456 0.527181 15.4859 1.06754 15.6704 1.75288C16.0131 3.00493 15.9999 5.61447 15.9999 5.61447C15.9999 5.61447 15.9999 8.21084 15.6704 9.46289C15.4859 10.1482 14.9456 10.6886 14.2602 10.8731C13.0082 11.2026 7.99997 11.2026 7.99997 11.2026C7.99997 11.2026 3.00493 11.2026 1.7397 10.8599C1.05436 10.6754 0.514001 10.135 0.329488 9.44971C0 8.21084 0 5.60129 0 5.60129C0 5.60129 0 3.00493 0.329488 1.75288C0.514001 1.06754 1.06754 0.514001 1.7397 0.329488C2.99175 0 7.99997 0 7.99997 0C7.99997 0 13.0082 0 14.2602 0.342667ZM10.571 5.6018L6.40625 8.00047V3.20312L10.571 5.6018Z" fill="#505567"/>
</svg>
